<svg id="Layer_1" xmlns="http://www.w3.org/2000/svg" viewBox="-121.2 205.2 384 384"><style>.st0{opacity:0.8;fill:#FFFFFF;enable-background:new ;}</style><path class="st0" d="M35.4 317.7V328H8.8v74.3H-3V328h-26.6v-10.3h65zm68.4 51.3c0 5.1-.7 9.6-2.2 13.6-1.4 4.1-3.6 7.5-6.2 10.5s-5.8 5.2-9.5 6.8c-3.7 1.6-7.6 2.3-12 2.3-4.3 0-8.3-.8-12-2.3-3.7-1.6-6.8-3.9-9.5-6.8-2.6-2.9-4.7-6.4-6.2-10.5-1.4-4.1-2.2-8.6-2.2-13.6s.7-9.5 2.2-13.6c1.4-4.1 3.6-7.6 6.2-10.6 2.6-2.9 5.8-5.2 9.5-6.8 3.7-1.6 7.6-2.3 12-2.3s8.3.8 12 2.3c3.7 1.6 6.8 3.9 9.5 6.8 2.6 2.9 4.7 6.4 6.2 10.6 1.5 4 2.2 8.6 2.2 13.6zM92 369c0-7.1-1.6-12.8-4.8-17-3.3-4.2-7.6-6.3-13.1-6.3s-9.9 2.1-13.1 6.3c-3.3 4.2-4.8 9.9-4.8 17s1.6 12.8 4.8 17c3.2 4.2 7.6 6.3 13.1 6.3s9.9-2.1 13.1-6.3c3.2-4.2 4.8-9.9 4.8-17zm60.3 33.2c-5.1 0-9.7-.8-13.5-2.4-3.9-1.6-7.1-3.9-9.8-6.8-2.6-2.9-4.6-6.4-5.9-10.5-1.3-4.1-1.9-8.4-1.9-13.3s.7-9.4 2.1-13.4c1.4-4.1 3.5-7.6 6-10.6 2.5-2.9 5.8-5.3 9.6-6.9 3.8-1.6 8-2.5 12.6-2.5 2.8 0 5.7.2 8.5.7s5.6 1.2 8.1 2.3l-2.5 9.7c-1.7-.8-3.7-1.4-5.9-1.9s-4.6-.7-7.1-.7c-6.3 0-11.2 2-14.5 6-3.4 4-5.1 9.8-5.1 17.5 0 3.5.4 6.5 1.1 9.4.8 2.8 2 5.3 3.7 7.3 1.6 2 3.8 3.6 6.4 4.7 2.6 1.1 5.8 1.6 9.6 1.6 3.1 0 5.7-.3 8.1-.8 2.4-.6 4.4-1.2 5.7-1.8l1.6 9.6c-.6.4-1.6.8-2.8 1.1-1.2.4-2.6.7-4.2 1-1.5.3-3.2.5-5 .7-1.6-.1-3.3 0-4.9 0z"/></svg>