<svg xmlns="http://www.w3.org/2000/svg" width="1000" height="802.288" viewBox="0 0 1000 802.288"><g fill="#FFF"><path d="M970.8 0H29.2C13.075 0 0 13.074 0 29.2v632.13c0 16.128 13.074 29.202 29.2 29.202h355.4c-.774 12.368-2.228 29.325-4.084 45.41-5.03 43.57-8.95 47.375-9.687 47.695-3.59 1.56-14.5 3.236-24.14 4.716-17.24 2.645-19.62 3.236-19.62 4.87v2.46c0 .616 0 1.122 3.222 1.543v2.885c0 1.86 55.04 2.18 104.86 2.18 25.203 0 49.064-.08 63.803-.09 14.736.01 38.606.09 63.804.09 49.824 0 104.86-.32 104.86-2.17v-2.885c3.222-.42 3.224-.927 3.224-1.543v-2.462c0-1.633-2.385-2.224-19.62-4.87-9.634-1.478-20.554-3.154-24.133-4.715-.736-.32-4.657-4.13-9.687-47.7-1.857-16.082-3.31-33.04-4.087-45.407h357.47c16.13 0 29.202-13.074 29.202-29.2V29.2C1000 13.075 986.923 0 970.8 0zM666.197 799.165c-2.157.396-9.776.98-34.694 1.338-16.703.24-39.188.356-68.735.356-15.278 0-29.808-.03-42.628-.06-8.156-.02-15.374-.03-21.178-.04-5.803.002-13.02.02-21.177.034-12.818.025-27.346.056-42.626.056-29.55 0-52.03-.117-68.74-.356-24.92-.36-32.54-.94-34.7-1.338v-1.78c4.49.434 13.308.77 30.648 1.035 17.22.264 40.86.39 72.266.39 15.525 0 30.23-.03 43.202-.054 8.156-.018 15.354-.03 21.12-.035 5.76.006 12.96.02 21.12.037 12.972.027 27.676.057 43.2.057 31.41 0 55.05-.13 72.266-.393 17.34-.266 26.16-.6 30.648-1.033v1.777zM615.52 736.16c5.41 46.867 9.48 48.642 10.817 49.224 3.807 1.66 14.38 3.283 24.605 4.854 7.29 1.117 16.278 2.498 18.004 3.36v1.53c-4.58 1.182-40.102 1.78-105.662 1.78-15.52 0-30.225-.03-43.2-.056-8.157-.017-15.357-.03-21.122-.034-5.764.003-12.964.018-21.122.034-12.97.026-27.673.057-43.197.057-65.56 0-101.08-.6-105.662-1.79v-1.53c1.73-.86 10.72-2.24 18.01-3.36 10.228-1.57 20.8-3.19 24.61-4.855 1.337-.58 5.407-2.356 10.817-49.224 1.865-16.157 3.325-33.203 4.1-45.627h224.91c.778 12.422 2.238 29.47 4.103 45.625zm382.574-74.828c0 15.052-12.244 27.296-27.296 27.296H29.2c-15.05 0-27.295-12.244-27.295-27.296V600.05h996.19v61.282zM1.904 598.145V29.2C1.904 14.15 14.15 1.906 29.2 1.906h941.6c15.05 0 27.295 12.245 27.295 27.296v568.945H1.905z"/><path d="M957.144 40H42.857C41.28 40 40 41.28 40 42.857v514.286c0 1.577 1.28 2.857 2.857 2.857h914.286c1.577 0 2.856-1.28 2.856-2.857V42.857c0-1.577-1.28-2.857-2.86-2.857zm0 517.143H42.857V42.857h914.286v514.286zM500 24.84c2.104 0 3.81-1.705 3.81-3.81 0-2.103-1.705-3.81-3.81-3.81-2.104 0-3.81 1.707-3.81 3.81 0 2.105 1.706 3.81 3.81 3.81zm0-5.714c1.05 0 1.905.854 1.905 1.905 0 1.06-.854 1.91-1.905 1.91-1.05 0-1.905-.85-1.905-1.9 0-1.05.855-1.904 1.905-1.904z"/><path opacity=".1" d="M42.857 42.855h914.286V557.14H42.857z"/></g></svg>