<svg xmlns="http://www.w3.org/2000/svg" width="900" height="722.07" viewBox="49.994 40.11 900 722.07"><g fill="#FFF"><path d="M923.725 40.11H76.275c-14.513 0-26.28 11.767-26.28 26.28v568.924c0 14.517 11.766 26.283 26.28 26.283h319.863c-.696 11.13-2.005 26.393-3.676 40.87-4.526 39.212-8.054 42.638-8.718 42.924-3.23 1.41-13.05 2.92-21.726 4.25-15.516 2.38-17.658 2.92-17.658 4.39v2.22c0 .556 0 1.01 2.9 1.39v2.598c0 1.674 49.536 1.96 94.374 1.96 22.682 0 44.158-.07 57.423-.08 13.262.01 34.746.08 57.424.08 44.85 0 94.38-.286 94.38-1.95v-2.597c2.9-.38 2.9-.835 2.9-1.39v-2.214c0-1.473-2.14-2.003-17.65-4.385-8.67-1.33-18.5-2.84-21.72-4.245-.66-.288-4.19-3.718-8.72-42.93-1.67-14.474-2.97-29.737-3.68-40.867h321.73c14.52 0 26.29-11.77 26.29-26.28V66.39c.013-14.512-11.757-26.28-26.267-26.28zM649.58 759.368c-1.942.355-8.8.88-31.227 1.204-15.033.217-35.27.32-61.862.32-13.75 0-26.82-.026-38.36-.055-7.34-.018-13.83-.026-19.06-.035-5.22.002-11.72.018-19.06.03-11.53.022-24.61.05-38.36.05-26.59 0-46.83-.104-61.86-.32-22.43-.324-29.284-.846-31.23-1.203v-1.61c4.04.39 11.98.69 27.587.93 15.498.23 36.774.35 65.04.35 13.973 0 27.208-.03 38.883-.05 7.34-.02 13.82-.03 19.007-.03 5.186 0 11.666.02 19.01.03 11.675.02 24.908.05 38.88.05 28.27 0 49.546-.12 65.04-.35 15.606-.24 23.545-.54 27.585-.93v1.6h.007zm-45.61-56.706c4.868 42.182 8.53 43.78 9.734 44.303 3.427 1.494 12.942 2.955 22.146 4.37 6.56 1.004 14.65 2.247 16.203 3.022v1.378c-4.122 1.063-36.093 1.602-95.097 1.602-13.97 0-27.204-.026-38.88-.052-7.343-.014-13.823-.026-19.01-.03-5.188.004-11.668.017-19.01.03-11.674.025-24.907.053-38.88.053-59.003 0-90.97-.54-95.095-1.61v-1.378c1.56-.775 9.65-2.016 16.21-3.025 9.21-1.41 18.72-2.87 22.15-4.368 1.21-.52 4.87-2.12 9.74-44.302 1.68-14.54 3-29.884 3.69-41.065h202.42c.7 11.18 2.02 26.524 3.7 41.063l-.01.01zm344.32-67.346c0 13.548-11.02 24.567-24.567 24.567H76.273c-13.544 0-24.565-11.02-24.565-24.567v-55.154H948.29v55.154zm-896.583-56.87V66.392c0-13.544 11.02-24.564 24.567-24.564h847.45c13.546 0 24.566 11.02 24.566 24.566V578.45H51.708v-.003z"/><path d="M911.434 76.11H88.564c-1.418 0-2.57 1.152-2.57 2.57v462.864c0 1.42 1.152 2.57 2.57 2.57h822.868c1.42 0 2.57-1.15 2.57-2.57V78.682c0-1.42-1.15-2.57-2.573-2.57zm0 465.434H88.564V78.682h822.868l.002 462.862zM500 62.466c1.893 0 3.428-1.535 3.428-3.43 0-1.893-1.533-3.43-3.428-3.43-1.894 0-3.43 1.537-3.43 3.43 0 1.896 1.536 3.43 3.43 3.43zm0-5.142c.945 0 1.714.77 1.714 1.714 0 .954-.77 1.72-1.714 1.72-.945 0-1.715-.766-1.715-1.71s.77-1.714 1.715-1.714v-.01z"/><path opacity=".1" d="M88.565 78.68h822.867v462.862H88.565V78.68z"/></g></svg>