<svg xmlns="http://www.w3.org/2000/svg" width="375.57" height="375.57" viewBox="0 0 375.57 375.57"><radialGradient id="a" cx="339.185" cy="-327.645" r="197.744" fx="180.821" fy="-209.223" gradientTransform="matrix(1 0 0 -1 -168 -184.86)" gradientUnits="userSpaceOnUse"><stop offset="0" stop-color="#C6E1E7"/><stop offset="1" stop-color="#B2D0DE"/></radialGradient><path fill="url(#a)" d="M375.568 166.055c0-67.89-84.074-122.92-187.783-122.92S.002 98.165.002 166.055c0 67.884 84.074 122.92 187.783 122.92 13.967 0 27.574-1.01 40.675-2.9h-.005l90.682 46.356-13.75-70.556c42.79-22.525 70.18-57.076 70.18-95.82z"/><path opacity=".8" fill="#FFF" d="M153.962 109.634v10.08h-26.16v73.08h-11.64v-73.08h-26.16v-10.08h63.96z"/><circle opacity=".8" fill="#FFF" cx="121.982" cy="222.961" r="9.6"/><circle opacity=".8" fill="#FFF" cx="191.956" cy="222.961" r="9.6"/><path opacity=".8" fill="#FFF" d="M221.234 160.034c0 4.962-.72 9.44-2.16 13.44-1.438 4-3.46 7.438-6.06 10.316-2.603 2.883-5.7 5.105-9.3 6.66-3.604 1.565-7.523 2.34-11.76 2.34-4.244 0-8.163-.774-11.763-2.34-3.6-1.56-6.7-3.777-9.3-6.66-2.6-2.88-4.62-6.313-6.06-10.314-1.44-4-2.16-8.48-2.16-13.44 0-4.88.72-9.34 2.16-13.38s3.46-7.5 6.06-10.38c2.6-2.88 5.7-5.103 9.3-6.66 3.6-1.563 7.52-2.34 11.76-2.34s8.16.777 11.76 2.34c3.606 1.56 6.7 3.78 9.3 6.66s4.62 6.34 6.066 10.38c1.44 4.04 2.16 8.5 2.16 13.38v-.002zm-11.638 0c0-7.038-1.58-12.618-4.74-16.74-3.16-4.12-7.46-6.18-12.896-6.18-5.444 0-9.744 2.06-12.903 6.18-3.16 4.122-4.74 9.702-4.74 16.74 0 7.04 1.58 12.62 4.74 16.74 3.16 4.12 7.46 6.18 12.9 6.18s9.737-2.06 12.897-6.18 4.74-9.7 4.74-16.74h.002z"/><circle opacity=".8" fill="#FFF" cx="261.928" cy="222.961" r="9.6"/><path opacity=".8" fill="#FFF" d="M268.89 192.794c-5.042 0-9.463-.8-13.262-2.396-3.8-1.603-7-3.84-9.6-6.723-2.604-2.88-4.542-6.3-5.82-10.26-1.28-3.96-1.92-8.34-1.92-13.14s.698-9.2 2.1-13.2c1.4-4 3.38-7.46 5.94-10.38s5.7-5.2 9.42-6.84c3.72-1.64 7.86-2.46 12.42-2.46 2.8 0 5.6.237 8.4.72 2.8.48 5.48 1.242 8.04 2.28l-2.522 9.48c-1.68-.8-3.62-1.44-5.818-1.92-2.2-.48-4.54-.72-7.02-.72-6.24 0-11.02 1.96-14.34 5.88-3.32 3.92-4.98 9.64-4.98 17.16 0 3.355.38 6.437 1.143 9.24.76 2.8 1.96 5.196 3.6 7.195 1.644 2 3.74 3.54 6.304 4.62 2.56 1.08 5.68 1.62 9.36 1.62 2.96 0 5.64-.28 8.04-.84 2.398-.56 4.277-1.16 5.64-1.8l1.56 9.357c-.64.4-1.56.78-2.76 1.143-1.2.357-2.563.68-4.08.96-1.52.28-3.14.52-4.857.72-1.727.2-3.387.302-4.984.302z"/></svg>