<?xml version="1.0" encoding="utf-8"?>
<!-- Generator: Adobe Illustrator 16.0.0, SVG Export Plug-In . SVG Version: 6.00 Build 0)  -->
<!DOCTYPE svg PUBLIC "-//W3C//DTD SVG 1.1//EN" "http://www.w3.org/Graphics/SVG/1.1/DTD/svg11.dtd">
<svg version="1.1" id="Layer_1" xmlns="http://www.w3.org/2000/svg" xmlns:xlink="http://www.w3.org/1999/xlink" x="0px" y="0px"
	 width="375.57px" height="375.57px" viewBox="0 0 375.57 375.57" enable-background="new 0 0 375.57 375.57" xml:space="preserve">
<g opacity="0.8">
	<path fill="#FFFFFF" d="M221.234,160.034c0,4.962-0.721,9.44-2.159,13.44c-1.438,4.001-3.462,7.438-6.062,10.317
		c-2.601,2.881-5.699,5.103-9.3,6.66c-3.601,1.563-7.521,2.34-11.76,2.34c-4.242,0-8.161-0.777-11.761-2.34
		c-3.601-1.56-6.701-3.779-9.301-6.66c-2.601-2.88-4.619-6.316-6.06-10.317c-1.44-4-2.16-8.479-2.16-13.44
		c0-4.879,0.72-9.339,2.16-13.38c1.44-4.039,3.459-7.5,6.06-10.38c2.6-2.88,5.7-5.102,9.301-6.66c3.6-1.562,7.519-2.34,11.761-2.34
		c4.237,0,8.16,0.778,11.76,2.34c3.601,1.561,6.699,3.78,9.3,6.66c2.6,2.88,4.62,6.341,6.062,10.38
		C220.516,150.695,221.234,155.155,221.234,160.034z M209.596,160.034c0-7.038-1.58-12.618-4.74-16.74
		c-3.16-4.119-7.459-6.18-12.897-6.18c-5.442,0-9.742,2.061-12.901,6.18c-3.161,4.122-4.74,9.702-4.74,16.74
		c0,7.041,1.579,12.621,4.74,16.74c3.159,4.121,7.459,6.18,12.901,6.18c5.438,0,9.737-2.059,12.897-6.18
		C208.016,172.655,209.596,167.075,209.596,160.034z"/>
</g>
</svg>
