<?xml version="1.0" encoding="utf-8"?>
<!-- Generator: Adobe Illustrator 16.0.0, SVG Export Plug-In . SVG Version: 6.00 Build 0)  -->
<!DOCTYPE svg PUBLIC "-//W3C//DTD SVG 1.1//EN" "http://www.w3.org/Graphics/SVG/1.1/DTD/svg11.dtd">
<svg version="1.1" id="Layer_1" xmlns="http://www.w3.org/2000/svg" xmlns:xlink="http://www.w3.org/1999/xlink" x="0px" y="0px"
	 width="220px" height="459.079px" viewBox="39.991 83.46 220 459.079" enable-background="new 39.991 83.46 220 459.079"
	 xml:space="preserve">
<g>
	<path fill="#FFFFFF" d="M250.318,96.83c-6.242-6.234-14.543-9.67-23.368-9.67h-2.811v-1.98l-0.667-0.513l-1.117-0.854l-0.465-0.352
		h-33.146l-0.394,0.226l-1.496,0.854l-0.859,0.493v2.124H76.18c-8.829,0-17.127,3.436-23.37,9.672
		c-6.245,6.236-9.683,14.529-9.683,23.346v28.745h-1.278l-0.499,0.5l-0.854,0.855l-0.499,0.499v20.479l0.499,0.501l0.854,0.852
		l0.499,0.5h1.27v18.781h-1.272l-0.501,0.5l-0.851,0.854l-0.499,0.501v15.644l0.499,0.5l0.855,0.852l0.499,0.499h1.276v18.502
		h-1.278l-0.499,0.499l-0.855,0.86l-0.5,0.5v15.644l0.5,0.5l0.854,0.854l0.499,0.5h1.276v260.413c0,8.822,3.44,17.114,9.684,23.351
		c6.253,6.251,14.546,9.681,23.372,9.681h150.768c8.825,0,17.126-3.431,23.365-9.667c6.245-6.238,9.683-14.53,9.683-23.351V120.179
		c0-8.817-3.438-17.11-9.683-23.348L250.318,96.83z M187.707,86.024l1.496-0.855h32.117l1.112,0.85v1.136h-34.729V86.02v0.003
		L187.707,86.024z M54.419,98.44c5.813-5.807,13.539-9.004,21.761-9.004H226.95c8.219,0,15.947,3.197,21.759,9.004
		c5.815,5.805,9.017,13.525,9.017,21.739v7.11h-2.276v-7.129c0-15.722-12.754-28.466-28.499-28.466H76.18
		c-15.739,0-28.499,12.744-28.499,28.466v7.13h-2.279v-7.111C45.402,111.969,48.604,104.247,54.419,98.44z M257.727,130.707v368.572
		h-2.276V130.707h2.278H257.727z M253.174,120.16v389.344c0,14.438-11.766,26.19-26.224,26.19H76.179
		c-14.458,0-26.222-11.75-26.222-26.19V120.16c0-14.439,11.762-26.188,26.222-26.188h150.77c14.458,0,26.221,11.748,26.221,26.188
		h0.003H253.174z M45.402,249.107v-118.4h2.276v368.574h-2.276V249.107L45.402,249.107z M42.557,171.405l-0.854-0.854v-19.065
		l0.851-0.854h0.57v20.778h-0.576v-0.002L42.557,171.405z M42.557,209.544l-0.854-0.855V194.46l0.852-0.855h0.572v15.939h-0.572
		H42.557L42.557,209.544z M42.557,247.399l-0.854-0.855v-14.234l0.851-0.858h0.572v15.934h-0.572l0.002,0.008L42.557,247.399z
		 M248.707,531.263c-5.813,5.807-13.541,9.006-21.761,9.006H76.179c-8.219,0-15.948-3.199-21.761-8.998
		c-5.814-5.806-9.015-13.527-9.015-21.739v-6.828h2.276v6.807c0,15.722,12.752,28.467,28.499,28.467h150.77
		c15.737,0,28.498-12.746,28.498-28.467v-6.805h2.273v6.828c0,8.208-3.203,15.932-9.013,21.737l0.002-0.005L248.707,531.263z"/>
	<path fill="#FFFFFF" d="M135.341,131.846h31.307c2.358,0,4.27-1.912,4.27-4.27s-1.903-4.269-4.264-4.269h-31.31
		c-2.353,0-4.265,1.911-4.265,4.269s1.912,4.269,4.271,4.269L135.341,131.846z M135.341,125.583h31.307
		c1.101,0,1.992,0.895,1.992,1.993s-0.894,1.993-1.987,1.993h-31.307c-1.1,0-1.99-0.896-1.99-1.993s0.893-1.992,1.992-1.992
		l-0.007-0.009V125.583z M242.355,150.914H60.203c-1.257,0-2.276,1.02-2.276,2.277v323.321c0,1.256,1.019,2.275,2.276,2.275h182.153
		c1.256,0,2.276-1.02,2.276-2.275V153.191C244.632,151.934,243.612,150.915,242.355,150.914L242.355,150.914z M242.355,476.512
		H60.203V153.191h182.153V476.512L242.355,476.512z M151.422,489.035c-10.604,0-19.209,8.601-19.209,19.211
		c0,10.611,8.604,19.208,19.217,19.208c10.61,0,19.212-8.599,19.212-19.208c0-10.611-8.602-19.211-19.212-19.212L151.422,489.035z
		 M151.422,525.181c-9.335,0-16.933-7.599-16.933-16.935c0-9.338,7.598-16.937,16.933-16.937c9.341,0,16.94,7.591,16.94,16.933
		c0,9.343-7.595,16.933-16.933,16.933L151.422,525.181z M151.286,115.233c2.665,0,4.84-2.171,4.84-4.839
		c0-2.668-2.17-4.838-4.838-4.838c-2.667,0-4.837,2.17-4.837,4.832c0,2.661,2.17,4.84,4.832,4.84l0.005,0.005H151.286z
		 M151.286,107.264c1.726,0,3.13,1.404,3.13,3.131c0,1.726-1.404,3.131-3.13,3.131c-1.728,0-3.132-1.406-3.132-3.132
		S149.559,107.264,151.286,107.264L151.286,107.264z"/>
	<circle fill="#FFFFFF" cx="151.279" cy="110.319" r="1.708"/>
	<path opacity="0.1" fill="#FFFFFF" enable-background="new    " d="M60.212,153.195h182.152v323.319H60.212V153.195z"/>
</g>
</svg>
