<svg xmlns="http://www.w3.org/2000/svg" width="300" height="626.002" viewBox="0 0 300 626.002"><g fill="#FFF"><path d="M286.796 18.23c-8.513-8.5-19.83-13.185-31.867-13.185h-3.83v-2.7l-.91-.7L248.67.48l-.628-.48H202.84l-.536.308-2.036 1.164-1.173.672v2.903H49.34c-12.037 0-23.354 4.683-31.867 13.186C8.958 26.736 4.27 38.043 4.27 50.07v39.193H2.528l-.683.682L.682 91.11 0 91.792v27.93l.682.683 1.165 1.164.682.68h1.73v25.61H2.52l-.683.68-1.16 1.166-.683.683v21.333l.682.682 1.164 1.16.682.682h1.74v25.227h-1.74l-.682.682-1.165 1.17-.683.68v21.333l.682.68 1.164 1.165.682.68h1.74v355.1c0 12.027 4.69 23.335 13.204 31.84C25.99 621.32 37.3 626 49.34 626h205.59c12.036 0 23.354-4.68 31.866-13.184C295.31 604.31 300 593.003 300 580.976V50.07c0-12.027-4.69-23.335-13.204-31.84zM201.423 3.494l2.037-1.165h43.794l1.518 1.16v1.55h-47.35V3.49zM19.667 20.428C27.594 12.51 38.13 8.15 49.34 8.15h205.59c11.208 0 21.746 4.36 29.673 12.277 7.928 7.917 12.293 18.445 12.293 29.643v9.696h-3.105v-9.724c0-21.438-17.39-38.816-38.86-38.816H49.34c-21.463 0-38.86 17.378-38.86 38.816v9.724H7.373V50.07c0-11.197 4.365-21.725 12.293-29.642zm277.23 43.996v502.588h-3.106V64.424h3.11zm-6.21-14.38V580.95c0 19.69-16.042 35.712-35.758 35.712H49.34c-19.715 0-35.756-16.02-35.756-35.712V50.043c0-19.69 16.04-35.71 35.756-35.71h205.59c19.715 0 35.756 16.02 35.756 35.71zM7.373 225.874V64.424h3.104v502.59H7.374v-341.14zM3.493 119.92l-1.165-1.163v-26L3.49 91.59h.777v28.333H3.49zm0 52.007l-1.165-1.165v-19.405l1.163-1.164h.78v21.733h-.78zm0 51.617l-1.165-1.165v-19.41l1.162-1.17h.78v21.732h-.78zm281.11 387.077c-7.928 7.92-18.466 12.28-29.675 12.28H49.34c-11.208 0-21.747-4.36-29.673-12.27-7.927-7.918-12.292-18.446-12.292-29.644v-9.31h3.104v9.28c0 21.44 17.39 38.817 38.86 38.817h205.59c21.46 0 38.86-17.38 38.86-38.816v-9.28h3.1v9.31c0 11.196-4.37 21.725-12.29 29.643z"/><path d="M130.013 65.977h42.69c3.216 0 5.822-2.606 5.822-5.822 0-3.214-2.606-5.82-5.82-5.82h-42.692c-3.215 0-5.82 2.606-5.82 5.82-.002 3.216 2.604 5.822 5.82 5.822zm0-8.54h42.69c1.498 0 2.718 1.22 2.718 2.718s-1.22 2.717-2.71 2.717h-42.69c-1.5 0-2.714-1.22-2.714-2.717s1.218-2.717 2.716-2.717zM275.938 91.98H27.555c-1.715 0-3.105 1.39-3.105 3.104v440.88c0 1.714 1.39 3.104 3.105 3.104h248.382c1.715 0 3.105-1.39 3.105-3.104V95.084c0-1.714-1.39-3.105-3.104-3.105zm0 443.984H27.555V95.084h248.382v440.88zM151.94 553.04c-14.468 0-26.197 11.73-26.197 26.197 0 14.47 11.73 26.196 26.197 26.196s26.196-11.728 26.196-26.196c0-14.467-11.728-26.196-26.196-26.196zm0 49.29c-12.733 0-23.092-10.36-23.092-23.093s10.36-23.092 23.092-23.092c12.733 0 23.092 10.358 23.092 23.092s-10.358 23.092-23.092 23.092zm-.194-559.005c3.638 0 6.598-2.96 6.598-6.598s-2.96-6.598-6.598-6.598c-3.637 0-6.597 2.96-6.597 6.59s2.96 6.6 6.59 6.6zm0-10.867c2.354 0 4.27 1.916 4.27 4.27s-1.916 4.268-4.27 4.268c-2.353 0-4.27-1.916-4.27-4.27s1.917-4.268 4.27-4.268z"/><circle cx="151.746" cy="36.624" r="2.329"/><path opacity=".1" d="M27.567 95.09H275.95v440.88H27.566z"/></g></svg>