<svg xmlns="http://www.w3.org/2000/svg" width="80.257" height="163.173" viewBox="0 0 80.257 163.173"><path fill="#D1D3D4" d="M80.257 153.357c0 5.42-4.612 9.815-10.303 9.815h-59.65c-5.69 0-10.304-4.395-10.304-9.815V9.815C0 4.395 4.613 0 10.303 0h59.65c5.69 0 10.304 4.394 10.304 9.815v143.542z"/><path fill="#F1F2F2" d="M79.458 151.333c0 5.35-4.52 9.688-10.098 9.688H10.898c-5.578 0-10.1-4.33-10.1-9.68V9.69C.8 4.335 5.322 0 10.9 0h58.46c5.576 0 10.098 4.337 10.098 9.687v141.646z"/><path fill="#58595B" d="M46.19 12.967c0 .44-.374.798-.833.798H33.333c-.46 0-.832-.356-.832-.798 0-.44.38-.8.84-.8h12.02c.46 0 .84.36.84.8z"/><ellipse fill="#58595B" cx="39.219" cy="6.767" rx="1.661" ry="1.594"/><path fill="#939598" d="M46.35 13.12c0 .44-.374.798-.833.798H33.493c-.46 0-.832-.356-.832-.798 0-.44.38-.8.84-.8h12.02c.46 0 .83.36.83.8z"/><ellipse fill="#939598" cx="39.425" cy="6.964" rx="1.661" ry="1.593"/><ellipse fill="#939598" cx="29.026" cy="13.12" rx=".761" ry=".73"/><ellipse fill="#BCBEC0" cx="40.286" cy="151.351" rx="7.019" ry="6.731"/><ellipse fill="#E6E7E8" cx="40.286" cy="151.55" rx="7.019" ry="6.731"/><path fill="#D1D3D4" d="M41.9 148.988h-3.26c-.536 0-.97.43-.97.957v3.085c0 .53.435.957.97.957h3.26c.537 0 .97-.428.97-.957v-3.085c0-.528-.433-.957-.97-.957zm.536 3.784c0 .44-.362.797-.808.797H38.91c-.446 0-.808-.36-.808-.8v-2.57c0-.44.362-.8.808-.8h2.718c.445 0 .808.35.808.79v2.57z"/><path fill="#293034" d="M6.664 23.102h66.93v116.97H6.664z"/><path fill="#BCBEC0" d="M71.873 140.07h1.72V23.103H16.748"/></svg>