<?xml version="1.0" encoding="utf-8"?>
<!-- Generator: Adobe Illustrator 16.0.0, SVG Export Plug-In . SVG Version: 6.00 Build 0)  -->
<!DOCTYPE svg PUBLIC "-//W3C//DTD SVG 1.1//EN" "http://www.w3.org/Graphics/SVG/1.1/DTD/svg11.dtd">
<svg version="1.1" id="Layer_1" xmlns="http://www.w3.org/2000/svg" xmlns:xlink="http://www.w3.org/1999/xlink" x="0px" y="0px"
	 width="200px" height="417.335px" viewBox="0 0 200 417.335" enable-background="new 0 0 200 417.335" xml:space="preserve">
<g>
	<g>
		<path fill="#FFFFFF" d="M191.198,12.154c-5.676-5.668-13.221-8.79-21.246-8.79h-2.553V2.329V1.563l-0.607-0.466l-1.01-0.776
			L165.363,0h-0.526H135.64h-0.412l-0.358,0.205l-1.357,0.776l-0.782,0.447v0.9v1.035H32.894c-8.025,0-15.569,3.122-21.245,8.79
			C5.972,17.823,2.846,25.362,2.846,33.38v26.128H2.329H1.686l-0.455,0.455l-0.776,0.776L0,61.194v0.643v17.335v0.643l0.455,0.455
			l0.776,0.776L1.686,81.5h0.643h0.517v17.076H2.329H1.686l-0.455,0.455l-0.776,0.776L0,100.263v0.643v12.937v0.643l0.455,0.455
			l0.776,0.776l0.455,0.455h0.643h0.517v16.818H2.329H1.686l-0.455,0.455l-0.776,0.776L0,134.674v0.643v12.937v0.643l0.455,0.455
			l0.776,0.776l0.455,0.455h0.643h0.517v236.736c0,8.019,3.126,15.558,8.803,21.228c5.675,5.668,13.22,8.79,21.245,8.79h137.059
			c8.025,0,15.57-3.122,21.246-8.79c5.676-5.67,8.802-13.209,8.802-21.228V33.38C200,25.362,196.874,17.823,191.198,12.154z
			 M134.282,2.329l1.357-0.776h29.197l1.01,0.776v1.035h-31.564V2.329z M13.111,13.618c5.285-5.278,12.31-8.185,19.783-8.185
			h137.059c7.473,0,14.498,2.907,19.783,8.185c5.285,5.278,8.195,12.297,8.195,19.762v6.464h-2.07v-6.482
			c0-14.292-11.6-25.877-25.908-25.877H32.894c-14.309,0-25.908,11.585-25.908,25.877v6.482h-2.07V33.38
			C4.916,25.915,7.826,18.896,13.111,13.618z M197.931,42.95v335.058h-2.07V42.95H197.931z M193.79,33.362V387.3
			c0,13.127-10.693,23.807-23.838,23.807H32.894c-13.144,0-23.838-10.68-23.838-23.807V33.362c0-13.127,10.694-23.807,23.838-23.807
			h137.059C183.097,9.555,193.79,20.235,193.79,33.362z M4.916,150.582v-1.552v-14.489v-1.552V116.17v-1.552v-14.489v-1.553V81.5
			v-1.552V61.061v-1.553V42.95h2.07v335.058h-2.07V150.582z M2.329,79.948l-0.776-0.776V61.837c0.208-0.208,0.432-0.432,0.776-0.776
			h0.517v18.887H2.329z M2.329,114.619l-0.776-0.776v-12.937c0.208-0.209,0.432-0.433,0.776-0.776h0.517v14.489H2.329z
			 M2.329,149.03l-0.776-0.776v-12.937c0.208-0.209,0.432-0.432,0.776-0.776h0.517v14.489H2.329z M189.735,407.081
			c-5.285,5.278-12.311,8.185-19.783,8.185H32.894c-7.473,0-14.498-2.906-19.783-8.185s-8.195-12.298-8.195-19.763v-6.205h2.07
			v6.188c0,14.291,11.599,25.877,25.908,25.877h137.059c14.309,0,25.908-11.586,25.908-25.877v-6.188h2.07v6.205
			C197.931,394.783,195.021,401.802,189.735,407.081z"/>
		<path fill="#FFFFFF" d="M86.675,43.984h28.46c2.144,0,3.881-1.737,3.881-3.881c0-2.143-1.737-3.881-3.881-3.881h-28.46
			c-2.144,0-3.881,1.738-3.881,3.881C82.794,42.247,84.532,43.984,86.675,43.984z M86.675,38.292h28.46
			c0.998,0,1.811,0.813,1.811,1.811s-0.813,1.811-1.811,1.811h-28.46c-0.999,0-1.811-0.813-1.811-1.811S85.677,38.292,86.675,38.292
			z"/>
		<path fill="#FFFFFF" d="M183.958,61.32H18.37c-1.144,0-2.07,0.927-2.07,2.069v293.92c0,1.144,0.927,2.069,2.07,2.069h165.588
			c1.144,0,2.07-0.926,2.07-2.069V63.389C186.028,62.247,185.102,61.32,183.958,61.32z M183.958,357.309H18.37V63.389h165.588
			V357.309z"/>
		<path fill="#FFFFFF" d="M101.293,368.693c-9.645,0-17.464,7.82-17.464,17.465c0,9.646,7.819,17.465,17.464,17.465
			s17.465-7.818,17.465-17.465C118.759,376.513,110.938,368.693,101.293,368.693z M101.293,401.552
			c-8.489,0-15.394-6.906-15.394-15.395s6.905-15.395,15.394-15.395s15.395,6.906,15.395,15.395S109.782,401.552,101.293,401.552z"
			/>
		<path fill="#FFFFFF" d="M101.164,28.883c2.425,0,4.399-1.974,4.399-4.398c0-2.426-1.975-4.398-4.399-4.398
			s-4.398,1.973-4.398,4.398C96.766,26.91,98.739,28.883,101.164,28.883z M101.164,21.638c1.569,0,2.847,1.277,2.847,2.847
			c0,1.568-1.277,2.846-2.847,2.846c-1.569,0-2.846-1.277-2.846-2.846C98.318,22.916,99.595,21.638,101.164,21.638z"/>
		<circle fill="#FFFFFF" cx="101.164" cy="24.416" r="1.552"/>
	</g>
	<rect x="18.378" y="63.393" opacity="0.1" fill="#FFFFFF" width="165.588" height="293.92"/>
</g>
</svg>
