<svg xmlns="http://www.w3.org/2000/svg" width="209.625" height="276.528" viewBox="0 0 209.625 276.528"><path fill="#293034" d="M209.625 266.528c0 5.522-4.477 10-10 10H10c-5.523 0-10-4.478-10-10V10C0 4.477 4.477 0 10 0h189.625c5.523 0 10 4.477 10 10v256.528z"/><path fill="#58595B" d="M203.572 275.716c3.56-1.53 6.053-5.067 6.053-9.188V10c0-5.523-4.477-10-10-10H73.64l129.93 275.716z"/><path fill="#E6E7E8" d="M23.71 27.24h162.204v224.11H23.71z"/><path fill="#F1F2F2" d="M185.914 239.512V27.24H85.876"/><ellipse fill="#BCBEC0" cx="104.813" cy="264.399" rx="7.019" ry="6.731"/><ellipse fill="#293034" cx="104.813" cy="264.599" rx="7.019" ry="6.731"/><path fill="#E6E7E8" d="M106.444 262.037h-3.264c-.535 0-.97.43-.97.957v3.085c0 .52.435.95.97.95h3.264c.536 0 .97-.43.97-.96v-3.09c0-.528-.434-.957-.97-.957zm.535 3.784c0 .44-.37.8-.81.8h-2.72c-.45 0-.81-.35-.81-.79v-2.57c0-.44.36-.792.81-.792h2.71c.442 0 .81.356.81.797v2.57z"/></svg>