<?xml version="1.0" encoding="utf-8"?>
<!-- Generator: Adobe Illustrator 19.1.1, SVG Export Plug-In . SVG Version: 6.00 Build 0)  -->
<svg version="1.1" id="Layer_1" xmlns="http://www.w3.org/2000/svg" xmlns:xlink="http://www.w3.org/1999/xlink" x="0px" y="0px"
	 viewBox="-121.2 205.2 384 384" style="enable-background:new -121.2 205.2 384 384;" xml:space="preserve">
<style type="text/css">
	.st0{fill:url(#SVGID_1_);}
	.st1{opacity:0.8;fill:#FFFFFF;enable-background:new    ;}
</style>
<radialGradient id="SVGID_1_" cx="222.2974" cy="-530.437" r="205.5945" fx="66.4244" fy="-636.6466" gradientTransform="matrix(0.7861 0 0 -0.8977 -117.5392 -120.9775)" gradientUnits="userSpaceOnUse">
	<stop  offset="0" style="stop-color:#C6E1E7"/>
	<stop  offset="0" style="stop-color:#B2D0DE"/>
</radialGradient>
<path class="st0" d="M224.3,376.9c0-63.4-68.7-114.7-153.5-114.7S-82.7,313.5-82.7,376.9S-14,491.6,70.8,491.6
	c11.4,0,22.6-0.9,33.3-2.7l0,0l74.1,43.3l-11.3-65.9C201.9,445.3,224.3,413,224.3,376.9L224.3,376.9z"/>
<g>
	<path class="st1" d="M41.5,324.5v8.8H18.7v63.6H8.6v-63.6h-22.8v-8.8H41.5z"/>
	<circle class="st1" cx="13.6" cy="423" r="8.3"/>
	<circle class="st1" cx="74.5" cy="423" r="8.3"/>
	<path class="st1" d="M99.9,368.3c0,4.3-0.6,8.2-1.9,11.7c-1.2,3.5-3,6.4-5.3,9c-2.3,2.5-5,4.4-8.1,5.8c-3.1,1.4-6.5,2-10.3,2
		c-3.7,0-7.1-0.7-10.3-2c-3.1-1.4-5.8-3.3-8.1-5.8c-2.3-2.5-4-5.5-5.3-9c-1.2-3.5-1.9-7.4-1.9-11.7s0.6-8.1,1.9-11.7
		c1.2-3.5,3-6.5,5.3-9c2.3-2.5,5-4.4,8.1-5.8c3.1-1.4,6.5-2,10.3-2s7.1,0.7,10.3,2c3.1,1.4,5.8,3.3,8.1,5.8s4,5.5,5.3,9
		C99.3,360.1,99.9,364,99.9,368.3L99.9,368.3L99.9,368.3z M89.8,368.3c0-6.1-1.4-11-4.1-14.5c-2.8-3.6-6.5-5.4-11.2-5.4
		c-4.7,0-8.4,1.8-11.2,5.4c-2.8,3.6-4.1,8.4-4.1,14.5c0,6.1,1.4,11,4.1,14.5c2.7,3.6,6.5,5.4,11.2,5.4c4.7,0,8.4-1.8,11.2-5.4
		C88.5,379.2,89.8,374.4,89.8,368.3L89.8,368.3z"/>
	<circle class="st1" cx="135.3" cy="423" r="8.3"/>
	<path class="st1" d="M141.4,396.7c-4.3,0-8.3-0.7-11.6-2.1c-3.3-1.4-6.1-3.3-8.3-5.8c-2.3-2.5-3.9-5.5-5-9
		c-1.1-3.5-1.7-7.2-1.7-11.4c0-4.2,0.6-8,1.8-11.5c1.2-3.5,3-6.5,5.1-9s5-4.5,8.2-5.9c3.2-1.4,6.9-2.2,10.8-2.2
		c2.4,0,4.9,0.2,7.3,0.6s4.8,1,7,2l-2.2,8.3c-1.5-0.7-3.1-1.2-5-1.7s-3.9-0.6-6.1-0.6c-5.4,0-9.6,1.7-12.4,5.1s-4.3,8.3-4.3,15
		c0,3,0.3,5.6,1,8c0.7,2.4,1.7,4.5,3.1,6.3c1.4,1.7,3.2,3,5.5,4c2.3,1,5,1.4,8.2,1.4c2.6,0,4.9-0.3,7-0.7c2.1-0.5,3.7-1,4.9-1.6
		l1.4,8.2c-0.5,0.3-1.4,0.7-2.4,1c-1,0.3-2.3,0.6-3.6,0.9c-1.3,0.3-2.7,0.4-4.3,0.6C144.2,396.6,142.8,396.7,141.4,396.7
		L141.4,396.7z"/>
</g>
</svg>
