<?xml version="1.0" encoding="utf-8"?>
<!-- Generator: Adobe Illustrator 19.1.1, SVG Export Plug-In . SVG Version: 6.00 Build 0)  -->
<svg version="1.1" id="Layer_1" xmlns="http://www.w3.org/2000/svg" xmlns:xlink="http://www.w3.org/1999/xlink" x="0px" y="0px"
	 viewBox="-121.2 205.2 384 384" style="enable-background:new -121.2 205.2 384 384;" xml:space="preserve">
<style type="text/css">
	.st0{opacity:0.8;fill:#FFFFFF;enable-background:new    ;}
</style>
<path class="st0" d="M36.2,317.3v10.3H9.5v74.7H-2.4v-74.7h-26.8v-10.3H36.2z"/>
<path class="st0" d="M104.9,368.8c0,5.1-0.7,9.6-2.2,13.7c-1.4,4.1-3.6,7.6-6.2,10.5c-2.7,3-5.8,5.2-9.5,6.8
	c-3.7,1.6-7.7,2.4-12.1,2.4c-4.3,0-8.4-0.8-12.1-2.4c-3.7-1.6-6.8-3.9-9.5-6.8c-2.7-3-4.7-6.4-6.2-10.5c-1.4-4.1-2.2-8.7-2.2-13.7
	s0.7-9.5,2.2-13.7c1.4-4.1,3.6-7.7,6.2-10.6s5.8-5.2,9.5-6.8c3.7-1.6,7.7-2.4,12.1-2.4c4.4,0,8.4,0.8,12.1,2.4
	c3.7,1.6,6.8,3.9,9.5,6.8c2.7,3,4.7,6.4,6.2,10.6C104.2,359.2,104.9,363.8,104.9,368.8L104.9,368.8L104.9,368.8z M93.1,368.8
	c0-7.2-1.6-12.9-4.8-17.1c-3.3-4.2-7.7-6.3-13.2-6.3c-5.5,0-9.9,2.1-13.2,6.3c-3.3,4.2-4.8,9.9-4.8,17.1s1.6,12.9,4.8,17.1
	c3.2,4.2,7.7,6.3,13.2,6.3c5.5,0,9.9-2.1,13.2-6.3C91.6,381.7,93.1,376,93.1,368.8L93.1,368.8z"/>
<path class="st0" d="M153.7,402.3c-5.1,0-9.7-0.8-13.6-2.5c-3.9-1.6-7.2-3.9-9.8-6.8c-2.7-3-4.6-6.4-5.9-10.5
	c-1.3-4.1-1.9-8.5-1.9-13.4s0.7-9.4,2.1-13.5c1.4-4.1,3.5-7.7,6-10.6c2.6-3,5.8-5.3,9.6-7c3.8-1.6,8.1-2.6,12.7-2.6
	c2.9,0,5.7,0.2,8.6,0.7c2.9,0.5,5.6,1.2,8.2,2.4l-2.6,9.7c-1.7-0.8-3.7-1.4-5.9-1.9c-2.2-0.5-4.6-0.7-7.2-0.7c-6.3,0-11.2,2-14.6,6
	c-3.4,4-5.1,9.8-5.1,17.6c0,3.5,0.4,6.5,1.1,9.4c0.8,2.9,2,5.3,3.7,7.4c1.6,2,3.8,3.6,6.4,4.7c2.7,1.1,5.8,1.6,9.6,1.6
	c3.1,0,5.7-0.3,8.2-0.8c2.5-0.6,4.4-1.2,5.7-1.8l1.6,9.6c-0.6,0.4-1.6,0.8-2.9,1.1c-1.2,0.4-2.7,0.7-4.2,1c-1.5,0.3-3.2,0.5-5,0.7
	C157.1,402.2,155.3,402.3,153.7,402.3L153.7,402.3z"/>
</svg>
