<svg id="Layer_1" xmlns="http://www.w3.org/2000/svg" viewBox="-121.2 205.2 384 384"><style>.st0{fill:url(#SVGID_1_);} .st1{opacity:0.8;fill:#FFFFFF;enable-background:new ;}</style><radialGradient id="SVGID_1_" cx="222.297" cy="-530.437" r="205.595" fx="66.424" fy="-636.647" gradientTransform="matrix(.786 0 0 -.8977 -117.54 -120.978)" gradientUnits="userSpaceOnUse"><stop offset="0" stop-color="#C6E1E7"/><stop offset="0" stop-color="#B2D0DE"/></radialGradient><path class="st0" d="M224.3 376.9c0-63.4-68.7-114.7-153.5-114.7S-82.7 313.5-82.7 376.9-14 491.6 70.8 491.6c11.4 0 22.6-.9 33.3-2.7l74.1 43.3-11.3-65.9c35-21 57.4-53.3 57.4-89.4z"/><path class="st1" d="M41.5 324.5v8.8H18.7v63.6H8.6v-63.6h-22.8v-8.8h55.7z"/><circle class="st1" cx="13.6" cy="423" r="8.3"/><circle class="st1" cx="74.5" cy="423" r="8.3"/><path class="st1" d="M99.9 368.3c0 4.3-.6 8.2-1.9 11.7-1.2 3.5-3 6.4-5.3 9-2.3 2.5-5 4.4-8.1 5.8-3.1 1.4-6.5 2-10.3 2-3.7 0-7.1-.7-10.3-2-3.1-1.4-5.8-3.3-8.1-5.8s-4-5.5-5.3-9c-1.2-3.5-1.9-7.4-1.9-11.7s.6-8.1 1.9-11.7c1.2-3.5 3-6.5 5.3-9s5-4.4 8.1-5.8c3.1-1.4 6.5-2 10.3-2s7.1.7 10.3 2c3.1 1.4 5.8 3.3 8.1 5.8s4 5.5 5.3 9c1.3 3.5 1.9 7.4 1.9 11.7zm-10.1 0c0-6.1-1.4-11-4.1-14.5-2.8-3.6-6.5-5.4-11.2-5.4-4.7 0-8.4 1.8-11.2 5.4-2.8 3.6-4.1 8.4-4.1 14.5s1.4 11 4.1 14.5c2.7 3.6 6.5 5.4 11.2 5.4 4.7 0 8.4-1.8 11.2-5.4 2.8-3.6 4.1-8.4 4.1-14.5z"/><circle class="st1" cx="135.3" cy="423" r="8.3"/><path class="st1" d="M141.4 396.7c-4.3 0-8.3-.7-11.6-2.1-3.3-1.4-6.1-3.3-8.3-5.8-2.3-2.5-3.9-5.5-5-9s-1.7-7.2-1.7-11.4.6-8 1.8-11.5c1.2-3.5 3-6.5 5.1-9s5-4.5 8.2-5.9c3.2-1.4 6.9-2.2 10.8-2.2 2.4 0 4.9.2 7.3.6s4.8 1 7 2l-2.2 8.3c-1.5-.7-3.1-1.2-5-1.7s-3.9-.6-6.1-.6c-5.4 0-9.6 1.7-12.4 5.1s-4.3 8.3-4.3 15c0 3 .3 5.6 1 8 .7 2.4 1.7 4.5 3.1 6.3 1.4 1.7 3.2 3 5.5 4s5 1.4 8.2 1.4c2.6 0 4.9-.3 7-.7 2.1-.5 3.7-1 4.9-1.6l1.4 8.2c-.5.3-1.4.7-2.4 1-1 .3-2.3.6-3.6.9-1.3.3-2.7.4-4.3.6-1.6 0-3 .1-4.4.1z"/></svg>