<?xml version="1.0" encoding="utf-8"?>
<!-- Generator: Adobe Illustrator 16.0.0, SVG Export Plug-In . SVG Version: 6.00 Build 0)  -->
<!DOCTYPE svg PUBLIC "-//W3C//DTD SVG 1.1//EN" "http://www.w3.org/Graphics/SVG/1.1/DTD/svg11.dtd">
<svg version="1.1" id="Layer_1" xmlns="http://www.w3.org/2000/svg" xmlns:xlink="http://www.w3.org/1999/xlink" x="0px" y="0px"
	 width="556.608px" height="468.879px" viewBox="0 0 556.608 468.879" enable-background="new 0 0 556.608 468.879"
	 xml:space="preserve">
<g>
	<polygon fill="#D1D3D4" points="344.627,444.785 337.626,365.864 280.498,367.049 222.381,365.864 215.38,444.785 198.687,459.203 
		198.687,462.238 201.559,465.273 205.866,466.982 222.381,467.74 279.901,468.875 279.901,468.879 280.004,468.877 
		280.105,468.879 280.105,468.875 337.626,467.74 354.141,466.982 358.448,465.273 361.32,462.238 361.32,459.203 	"/>
	<polygon fill="#F1F2F2" points="344.627,444.081 337.626,369.406 280.498,370.527 222.381,369.406 215.38,444.081 198.687,457.724 
		198.687,460.596 201.559,463.468 205.866,465.084 222.381,465.802 279.901,466.875 279.901,466.879 280.004,466.877 
		280.105,466.879 280.105,466.875 337.626,465.802 354.141,465.084 358.448,463.468 361.32,460.596 361.32,457.724 	"/>
	<path fill="#293034" d="M534.483,0H22.125C9.906,0,0,9.907,0,22.126v20.239v289.809v20.239c0,12.219,9.905,22.126,22.125,22.126
		h512.358c12.22,0,22.125-9.907,22.125-22.126v-20.239V42.365V22.126C556.608,9.907,546.703,0,534.483,0z"/>
	<rect x="19.238" y="22.916" fill="#E6E7E8" width="518.374" height="268.638"/>
	<path fill="#58595B" d="M556.608,326.554V22.126C556.608,9.907,546.703,0,534.483,0H341.979L495.64,326.064
		C515.963,326.164,536.286,326.371,556.608,326.554z"/>
	<polygon fill="#F1F2F2" points="503.555,344.158 537.612,344.158 537.612,22.916 351.987,22.916 	"/>
	<path fill="#E6E7E8" d="M0,315.145v17.029v20.239c0,12.219,9.905,22.126,22.125,22.126h512.358c12.22,0,22.125-9.907,22.125-22.126
		v-20.239v-17.029H0z"/>
</g>
</svg>
