<?xml version="1.0" encoding="utf-8"?>
<!-- Generator: Adobe Illustrator 16.0.0, SVG Export Plug-In . SVG Version: 6.00 Build 0)  -->
<!DOCTYPE svg PUBLIC "-//W3C//DTD SVG 1.1//EN" "http://www.w3.org/Graphics/SVG/1.1/DTD/svg11.dtd">
<svg version="1.1"
	 id="svg3396" sodipodi:docname="dropbox.svg" inkscape:version="0.91 r13725" xmlns:dc="http://purl.org/dc/elements/1.1/" xmlns:cc="http://creativecommons.org/ns#" xmlns:rdf="http://www.w3.org/1999/02/22-rdf-syntax-ns#" xmlns:svg="http://www.w3.org/2000/svg" xmlns:sodipodi="http://sodipodi.sourceforge.net/DTD/sodipodi-0.dtd" xmlns:inkscape="http://www.inkscape.org/namespaces/inkscape"
	 xmlns="http://www.w3.org/2000/svg" xmlns:xlink="http://www.w3.org/1999/xlink" x="0px" y="0px" width="104.335px"
	 height="97.043px" viewBox="0 0 104.335 97.043" enable-background="new 0 0 104.335 97.043" xml:space="preserve">
<sodipodi:namedview  bordercolor="#666666" pagecolor="#ffffff" id="base" inkscape:window-maximized="1" inkscape:window-y="-8" inkscape:window-x="1912" inkscape:window-height="1057" inkscape:window-width="1920" fit-margin-bottom="0" fit-margin-right="0" inkscape:current-layer="layer1" inkscape:pageshadow="2" inkscape:document-units="px" inkscape:pageopacity="0.0" fit-margin-left="0" fit-margin-top="0" showgrid="false" inkscape:cy="66.733147" inkscape:cx="113.58666" inkscape:zoom="3.959798" borderopacity="1.0">
	</sodipodi:namedview>
<g id="layer1" transform="translate(0,-931.05832)" inkscape:label="Layer 1" inkscape:groupmode="layer">
	<g id="g3344" transform="matrix(1.25,0,0,-1.25,-41.040625,1097.9602)" inkscape:label="dropbox-logos_dropbox-glyph-blue">
		<g id="g3346" transform="translate(63.5239,133.5215)">
			<path id="path3348" inkscape:connector-curvature="0" fill="#007EE5" d="M-6.138,0l-24.553-16.031l16.977-13.595L11.043-14.34
				L-6.138,0z"/>
		</g>
		<g id="g3350" transform="translate(32.8325,79.4932)">
			<path id="path3352" inkscape:connector-curvature="0" fill="#007EE5" d="M0,10.806L24.553-5.226L41.734,9.116L16.978,24.402
				L0,10.806z"/>
		</g>
		<g id="g3354" transform="translate(84.9995,77.3799)">
			<path id="path3356" inkscape:connector-curvature="0" fill="#007EE5" d="M-10.433,11.228L6.748-3.112l24.553,16.031
				L14.323,26.515L-10.433,11.228z"/>
		</g>
		<g id="g3358" transform="translate(137.1675,113.4824)">
			<path id="path3360" inkscape:connector-curvature="0" fill="#007EE5" d="M-20.867,4.008L-45.42,20.039l-17.182-14.34
				l24.757-15.287L-20.867,4.008z"/>
		</g>
		<g id="g3362" transform="translate(85.063,73.5234)">
			<path id="path3364" inkscape:connector-curvature="0" fill="#007EE5" d="M-10.446,12L-27.677-2.299l-7.373,4.814v-5.397
				l24.605-14.755L14.158-2.882v5.397L6.785-2.299L-10.446,12z"/>
		</g>
	</g>
</g>
</svg>
