<?xml version="1.0" encoding="utf-8"?>
<!-- Generator: Adobe Illustrator 16.0.0, SVG Export Plug-In . SVG Version: 6.00 Build 0)  -->
<!DOCTYPE svg PUBLIC "-//W3C//DTD SVG 1.1//EN" "http://www.w3.org/Graphics/SVG/1.1/DTD/svg11.dtd">
<svg version="1.1" id="Layer_1" xmlns="http://www.w3.org/2000/svg" xmlns:xlink="http://www.w3.org/1999/xlink" x="0px" y="0px"
	 width="466.315px" height="268.001px" viewBox="0 0 466.315 268.001" enable-background="new 0 0 466.315 268.001"
	 xml:space="preserve">
<g>
	<path fill="#293034" d="M422.824,258.845c0.414-1.379,0.638-2.839,0.638-4.353V15.13c0-8.355-6.773-15.13-15.129-15.13H57.982
		c-8.355,0-15.129,6.774-15.129,15.13v239.362c0,1.514,0.225,2.974,0.638,4.353H422.824z"/>
	<rect x="56.009" y="15.67" fill="#E6E7E8" width="354.464" height="219.92"/>
	<path fill="#58595B" d="M408.333,0H276.698l120.806,256.346h25.841c0.075-0.608,0.117-1.226,0.117-1.854V15.13
		C423.462,6.774,416.688,0,408.333,0z"/>
	<polygon fill="#F1F2F2" points="387.184,235.59 410.473,235.59 410.473,15.67 283.542,15.67 	"/>
	<path fill="#D1D3D4" d="M2.763,262.313c2.925,3.357,9.325,5.688,16.755,5.688h427.28c7.43,0,13.83-2.331,16.755-5.688H2.763z"/>
	<rect y="253.848" fill="#F1F2F2" width="466.315" height="9.006"/>
	<path fill="#D1D3D4" d="M200.141,253.848c0.806,2.891,3.288,4.997,6.229,4.997h52.826c2.939,0,5.423-2.106,6.229-4.997H200.141z"/>
</g>
</svg>
