<?xml version="1.0" encoding="utf-8"?>
<!-- Generator: Adobe Illustrator 16.0.0, SVG Export Plug-In . SVG Version: 6.00 Build 0)  -->
<!DOCTYPE svg PUBLIC "-//W3C//DTD SVG 1.1//EN" "http://www.w3.org/Graphics/SVG/1.1/DTD/svg11.dtd">
<svg version="1.1" id="Layer_1" xmlns="http://www.w3.org/2000/svg" xmlns:xlink="http://www.w3.org/1999/xlink" x="0px" y="0px"
	 width="80.257px" height="163.173px" viewBox="0 0 80.257 163.173" enable-background="new 0 0 80.257 163.173"
	 xml:space="preserve">
<g>
	<g>
		<path fill="#D1D3D4" d="M80.257,153.357c0,5.421-4.612,9.815-10.303,9.815H10.303c-5.69,0-10.303-4.395-10.303-9.815V9.815
			C0,4.394,4.613,0,10.303,0h59.651c5.69,0,10.303,4.394,10.303,9.815V153.357z"/>
		<path fill="#F1F2F2" d="M79.458,151.333c0,5.351-4.521,9.688-10.098,9.688H10.898c-5.578,0-10.099-4.337-10.099-9.688V9.687
			C0.8,4.337,5.321,0,10.898,0h58.462c5.576,0,10.098,4.337,10.098,9.687V151.333z"/>
	</g>
	<path fill="#58595B" d="M46.189,12.967c0,0.441-0.373,0.798-0.832,0.798H33.333c-0.459,0-0.832-0.356-0.832-0.798l0,0
		c0-0.44,0.373-0.799,0.832-0.799h12.023C45.816,12.168,46.189,12.526,46.189,12.967L46.189,12.967z"/>
	<ellipse fill="#58595B" cx="39.219" cy="6.767" rx="1.661" ry="1.594"/>
	<path fill="#939598" d="M46.349,13.12c0,0.441-0.373,0.798-0.832,0.798H33.493c-0.459,0-0.832-0.356-0.832-0.798l0,0
		c0-0.44,0.373-0.799,0.832-0.799h12.024C45.976,12.321,46.349,12.68,46.349,13.12L46.349,13.12z"/>
	<ellipse fill="#939598" cx="39.425" cy="6.964" rx="1.661" ry="1.593"/>
	<ellipse fill="#939598" cx="29.026" cy="13.12" rx="0.761" ry="0.73"/>
	<ellipse fill="#BCBEC0" cx="40.286" cy="151.351" rx="7.019" ry="6.731"/>
	<ellipse fill="#E6E7E8" cx="40.286" cy="151.55" rx="7.019" ry="6.731"/>
	<path fill="#D1D3D4" d="M41.901,148.988h-3.263c-0.536,0-0.97,0.429-0.97,0.957v3.085c0,0.529,0.435,0.957,0.97,0.957h3.263
		c0.536,0,0.97-0.428,0.97-0.957v-3.085C42.871,149.417,42.437,148.988,41.901,148.988z M42.436,152.772
		c0,0.44-0.362,0.797-0.808,0.797h-2.718c-0.446,0-0.808-0.356-0.808-0.797v-2.569c0-0.44,0.362-0.797,0.808-0.797h2.718
		c0.445,0,0.808,0.356,0.808,0.797V152.772z"/>
	<rect x="6.664" y="23.102" fill="#293034" width="66.929" height="116.97"/>
	<polygon fill="#BCBEC0" points="71.873,140.071 73.593,140.071 73.593,23.102 16.748,23.102 	"/>
</g>
</svg>
