<?xml version="1.0" encoding="utf-8"?>
<!-- Generator: Adobe Illustrator 16.0.0, SVG Export Plug-In . SVG Version: 6.00 Build 0)  -->
<!DOCTYPE svg PUBLIC "-//W3C//DTD SVG 1.1//EN" "http://www.w3.org/Graphics/SVG/1.1/DTD/svg11.dtd">
<svg version="1.1" id="Layer_1" xmlns="http://www.w3.org/2000/svg" xmlns:xlink="http://www.w3.org/1999/xlink" x="0px" y="0px"
	 width="1000px" height="802.288px" viewBox="0 0 1000 802.288" enable-background="new 0 0 1000 802.288" xml:space="preserve">
<g>
	<g>
		<path fill="#FFFFFF" d="M970.799,0H29.201C13.074,0,0,13.074,0,29.201v568.944v1.904v61.282c0,16.127,13.074,29.201,29.201,29.201
			h355.4c-0.775,12.368-2.229,29.325-4.085,45.409c-5.029,43.57-8.951,47.376-9.687,47.696c-3.581,1.561-14.5,3.236-24.134,4.716
			c-17.235,2.645-19.619,3.236-19.619,4.869v2.462c0,0.615,0.001,1.121,3.225,1.542c0,0.826,0,2.049,0,2.885
			c0,1.854,55.039,2.176,104.859,2.176c25.204,0,49.065-0.083,63.804-0.092c14.736,0.009,38.606,0.092,63.804,0.092
			c49.824,0,104.859-0.322,104.859-2.176c0-0.837,0-2.058,0-2.885c3.223-0.421,3.225-0.926,3.225-1.542v-2.462
			c0-1.633-2.384-2.224-19.618-4.869c-9.635-1.479-20.555-3.155-24.134-4.716c-0.736-0.32-4.657-4.126-9.687-47.696
			c-1.856-16.084-3.311-33.041-4.086-45.409h357.471c16.128,0,29.201-13.074,29.201-29.201v-61.282v-1.904V29.201
			C1000,13.074,986.927,0,970.799,0z M666.198,799.165c-2.157,0.396-9.776,0.979-34.694,1.338
			c-16.703,0.239-39.188,0.356-68.735,0.356c-15.277,0-29.807-0.03-42.627-0.056c-8.156-0.017-15.374-0.032-21.178-0.035
			c-5.803,0.003-13.021,0.019-21.177,0.035c-12.818,0.025-27.346,0.056-42.626,0.056c-29.545,0-52.028-0.117-68.735-0.356
			c-24.919-0.359-32.538-0.941-34.696-1.338v-1.778c4.489,0.433,13.308,0.768,30.648,1.034c17.221,0.264,40.859,0.393,72.266,0.393
			c15.525,0,30.229-0.029,43.202-0.057c8.158-0.017,15.356-0.031,21.119-0.034c5.763,0.003,12.962,0.018,21.12,0.034
			c12.975,0.027,27.679,0.057,43.202,0.057c31.408,0,55.048-0.129,72.267-0.393c17.338-0.267,26.157-0.602,30.646-1.034V799.165z
			 M615.522,736.16c5.409,46.867,9.479,48.642,10.816,49.224c3.807,1.66,14.381,3.283,24.605,4.854
			c7.289,1.117,16.278,2.498,18.004,3.359v1.53c-4.581,1.183-40.102,1.782-105.662,1.782c-15.521,0-30.225-0.03-43.199-0.057
			c-8.158-0.017-15.358-0.031-21.123-0.034c-5.764,0.003-12.964,0.018-21.122,0.034c-12.972,0.026-27.674,0.057-43.198,0.057
			c-65.561,0-101.081-0.6-105.662-1.782v-1.53c1.725-0.861,10.715-2.242,18.002-3.359c10.226-1.57,20.798-3.193,24.607-4.854
			c1.337-0.582,5.407-2.356,10.817-49.224c1.864-16.157,3.324-33.203,4.099-45.627h224.915
			C612.197,702.957,613.657,720.002,615.522,736.16z M998.095,661.332c0,15.052-12.244,27.296-27.296,27.296H29.201
			c-15.051,0-27.296-12.244-27.296-27.296v-61.282h996.19V661.332z M1.905,598.145V29.201c0-15.051,12.245-27.296,27.296-27.296
			h941.598c15.052,0,27.296,12.245,27.296,27.296v568.944H1.905z"/>
		<path fill="#FFFFFF" d="M957.144,40H42.857C41.279,40,40,41.279,40,42.857v514.286c0,1.577,1.279,2.857,2.857,2.857h914.286
			c1.577,0,2.856-1.28,2.856-2.857V42.857C960,41.279,958.721,40,957.144,40z M957.144,557.143H42.857V42.857h914.286V557.143z"/>
		<path fill="#FFFFFF" d="M500,24.841c2.104,0,3.81-1.706,3.81-3.81c0-2.104-1.705-3.81-3.81-3.81c-2.104,0-3.81,1.706-3.81,3.81
			C496.19,23.135,497.896,24.841,500,24.841z M500,19.126c1.051,0,1.905,0.854,1.905,1.905c0,1.051-0.854,1.905-1.905,1.905
			c-1.05,0-1.905-0.854-1.905-1.905C498.095,19.98,498.95,19.126,500,19.126z"/>
	</g>
	<rect x="42.857" y="42.855" opacity="0.1" fill="#FFFFFF" width="914.286" height="514.285"/>
</g>
</svg>
