<?xml version="1.0" encoding="utf-8"?>
<!-- Generator: Adobe Illustrator 19.1.1, SVG Export Plug-In . SVG Version: 6.00 Build 0)  -->
<svg version="1.1" id="Layer_1" xmlns="http://www.w3.org/2000/svg" xmlns:xlink="http://www.w3.org/1999/xlink" x="0px" y="0px"
	 viewBox="144 35.9 900 722.1" style="enable-background:new 144 35.9 900 722.1;" xml:space="preserve">
<style type="text/css">
	.st0{fill:#FFFFFF;}
	.st1{opacity:0.1;fill:#FFFFFF;enable-background:new    ;}
</style>
<g>
	<path class="st0" d="M1017.7,35.9H170.3c-14.5,0-26.3,11.8-26.3,26.3v568.9c0,14.5,11.8,26.3,26.3,26.3h319.9
		c-0.7,11.1-2,26.4-3.7,40.9c-4.5,39.2-8.1,42.6-8.7,42.9c-3.2,1.4-13,2.9-21.7,4.3c-15.5,2.4-17.7,2.9-17.7,4.4v2.2
		c0,0.6,0,1,2.9,1.4v2.6c0,1.7,49.5,2,94.4,2c22.7,0,44.2-0.1,57.4-0.1c13.3,0,34.7,0.1,57.4,0.1c44.8,0,94.4-0.3,94.4-2v-2.6
		c2.9-0.4,2.9-0.8,2.9-1.4v-2.2c0-1.5-2.1-2-17.7-4.4c-8.7-1.3-18.5-2.8-21.7-4.2c-0.7-0.3-4.2-3.7-8.7-42.9
		c-1.7-14.5-3-29.7-3.7-40.9h321.7c14.5,0,26.3-11.8,26.3-26.3v-569C1044,47.7,1032.3,35.9,1017.7,35.9L1017.7,35.9z M743.6,755.2
		c-1.9,0.4-8.8,0.9-31.2,1.2c-15,0.2-35.3,0.3-61.9,0.3c-13.8,0-26.8,0-38.4-0.1c-7.3,0-13.8,0-19.1,0c-5.2,0-11.7,0-19.1,0
		c-11.5,0-24.6,0-38.4,0c-26.6,0-46.8-0.1-61.9-0.3c-22.4-0.3-29.3-0.8-31.2-1.2v-1.6c4,0.4,12,0.7,27.6,0.9
		c15.5,0.2,36.8,0.3,65,0.3c14,0,27.2,0,38.9,0c7.3,0,13.8,0,19,0s11.7,0,19,0c11.7,0,24.9,0,38.9,0c28.3,0,49.5-0.1,65-0.3
		c15.6-0.2,23.5-0.5,27.6-0.9L743.6,755.2L743.6,755.2L743.6,755.2z M698,698.5c4.9,42.2,8.5,43.8,9.7,44.3c3.4,1.5,12.9,3,22.1,4.4
		c6.6,1,14.7,2.2,16.2,3v1.4c-4.1,1.1-36.1,1.6-95.1,1.6c-14,0-27.2,0-38.9-0.1c-7.3,0-13.8,0-19,0c-5.2,0-11.7,0-19,0
		c-11.7,0-24.9,0.1-38.9,0.1c-59,0-91-0.5-95.1-1.6v-1.4c1.6-0.8,9.6-2,16.2-3c9.2-1.4,18.7-2.9,22.1-4.4c1.2-0.5,4.9-2.1,9.7-44.3
		c1.7-14.5,3-29.9,3.7-41.1h202.4C695,668.6,696.3,683.9,698,698.5L698,698.5L698,698.5z M1042.3,631.1c0,13.5-11,24.6-24.6,24.6
		H170.3c-13.5,0-24.6-11-24.6-24.6V576h896.6L1042.3,631.1L1042.3,631.1z M145.7,574.3V62.2c0-13.5,11-24.6,24.6-24.6h847.5
		c13.5,0,24.6,11,24.6,24.6v512.1L145.7,574.3L145.7,574.3L145.7,574.3z"/>
	<path class="st0" d="M1005.4,71.9H182.6c-1.4,0-2.6,1.2-2.6,2.6v462.9c0,1.4,1.2,2.6,2.6,2.6h822.9c1.4,0,2.6-1.2,2.6-2.6V74.5
		C1008,73.1,1006.9,71.9,1005.4,71.9L1005.4,71.9z M1005.4,537.4H182.6V74.5h822.9L1005.4,537.4z M594,58.3c1.9,0,3.4-1.5,3.4-3.4
		c0-1.9-1.5-3.4-3.4-3.4c-1.9,0-3.4,1.5-3.4,3.4C590.6,56.8,592.1,58.3,594,58.3z M594,53.1c0.9,0,1.7,0.8,1.7,1.7
		c0,1-0.8,1.7-1.7,1.7c-0.9,0-1.7-0.8-1.7-1.7S593.1,53.2,594,53.1C594,53.2,594,53.1,594,53.1z"/>
	<path class="st1" d="M182.6,74.5h822.9v462.9H182.6V74.5z"/>
</g>
</svg>
