<svg xmlns="http://www.w3.org/2000/svg" width="556.608" height="468.879" viewBox="0 0 556.608 468.879"><path fill="#D1D3D4" d="M344.627 444.785l-7-78.92-57.13 1.184-58.116-1.19-7 78.92-16.69 14.42v3.03l2.87 3.03 4.31 1.71 16.52.757 57.52 1.134v.005l.108-.004.1.003v-.006l57.52-1.136 16.516-.76 4.308-1.71 2.873-3.033v-3.03"/><path fill="#F1F2F2" d="M344.627 444.08l-7-74.674-57.13 1.12-58.116-1.12-7 74.675-16.69 13.65v2.87l2.87 2.87 4.31 1.62 16.52.72 57.52 1.076v.004h.208v-.007l57.52-1.072 16.516-.714 4.308-1.616 2.873-2.87v-2.874"/><path fill="#293034" d="M534.483 0H22.125C9.905 0 0 9.907 0 22.126v330.288c0 12.218 9.905 22.125 22.125 22.125h512.358c12.22 0 22.125-9.91 22.125-22.13V22.12c0-12.212-9.905-22.12-22.125-22.12z"/><path fill="#E6E7E8" d="M19.238 22.916h518.374v268.638H19.238z"/><path fill="#58595B" d="M556.608 326.554V22.126C556.608 9.906 546.703 0 534.483 0H341.98l153.66 326.064c20.323.1 40.646.307 60.968.49z"/><path fill="#F1F2F2" d="M503.555 344.158h34.057V22.916H351.987"/><path fill="#E6E7E8" d="M0 315.145v37.268c0 12.22 9.905 22.126 22.125 22.126h512.358c12.22 0 22.125-9.91 22.125-22.13v-37.27H0z"/></svg>