<svg id="Layer_1" xmlns="http://www.w3.org/2000/svg" viewBox="-117 209.4 375.6 375.6"><style>.st0{fill:url(#SVGID_1_);} .st1{opacity:0.8;fill:#FFFFFF;enable-background:new ;}</style><radialGradient id="SVGID_1_" cx="222.185" cy="-532.225" r="197.744" fx="72.264" fy="-634.379" gradientTransform="matrix(1 0 0 -1 -168 -180.06)" gradientUnits="userSpaceOnUse"><stop offset="0" stop-color="#C6E1E7"/><stop offset="1" stop-color="#B2D0DE"/></radialGradient><path class="st0" d="M258.6 375.4c0-67.9-84.1-122.9-187.8-122.9S-117 307.5-117 375.4s84.1 122.9 187.8 122.9c14 0 27.6-1 40.7-2.9l90.7 46.4-13.8-70.6c42.8-22.5 70.2-57.1 70.2-95.8z"/><path class="st1" d="M37 319v10.1H10.8v73.1H-.8v-73.1H-27V319h64z"/><circle class="st1" cx="5" cy="432.3" r="9.6"/><circle class="st1" cx="75" cy="432.3" r="9.6"/><path class="st1" d="M104.2 369.4c0 5-.7 9.4-2.2 13.4-1.4 4-3.5 7.4-6.1 10.3s-5.7 5.1-9.3 6.7c-3.6 1.6-7.5 2.3-11.8 2.3-4.2 0-8.2-.8-11.8-2.3-3.6-1.6-6.7-3.8-9.3-6.7-2.6-2.9-4.6-6.3-6.1-10.3-1.4-4-2.2-8.5-2.2-13.4s.7-9.3 2.2-13.4c1.4-4 3.5-7.5 6.1-10.4s5.7-5.1 9.3-6.7c3.6-1.6 7.5-2.3 11.8-2.3s8.2.8 11.8 2.3c3.6 1.6 6.7 3.8 9.3 6.7s4.6 6.3 6.1 10.4c1.5 4 2.2 8.5 2.2 13.4zm-11.6 0c0-7-1.6-12.6-4.7-16.7-3.2-4.1-7.5-6.2-12.9-6.2s-9.7 2.1-12.9 6.2c-3.2 4.1-4.7 9.7-4.7 16.7s1.6 12.6 4.7 16.7 7.5 6.2 12.9 6.2 9.7-2.1 12.9-6.2 4.7-9.7 4.7-16.7z"/><circle class="st1" cx="144.9" cy="432.3" r="9.6"/><path class="st1" d="M151.9 402.1c-5 0-9.5-.8-13.3-2.4s-7-3.8-9.6-6.7c-2.6-2.9-4.5-6.3-5.8-10.3s-1.9-8.3-1.9-13.1c0-4.8.7-9.2 2.1-13.2s3.4-7.5 5.9-10.4c2.5-2.9 5.7-5.2 9.4-6.8s7.9-2.5 12.4-2.5c2.8 0 5.6.2 8.4.7 2.8.5 5.5 1.2 8 2.3l-2.5 9.5c-1.7-.8-3.6-1.4-5.8-1.9s-4.5-.7-7-.7c-6.2 0-11 2-14.3 5.9s-5 9.6-5 17.2c0 3.4.4 6.4 1.1 9.2.8 2.8 2 5.2 3.6 7.2s3.7 3.5 6.3 4.6 5.7 1.6 9.4 1.6c3 0 5.6-.3 8-.8 2.4-.6 4.3-1.2 5.6-1.8l1.6 9.4c-.6.4-1.6.8-2.8 1.1-1.2.4-2.6.7-4.1 1s-3.1.5-4.9.7c-1.5.1-3.2.2-4.8.2z"/></svg>