<?xml version="1.0" encoding="utf-8"?>
<!-- Generator: Adobe Illustrator 19.1.1, SVG Export Plug-In . SVG Version: 6.00 Build 0)  -->
<svg version="1.1" id="Layer_1" xmlns="http://www.w3.org/2000/svg" xmlns:xlink="http://www.w3.org/1999/xlink" x="0px" y="0px"
	 viewBox="-121.2 205.2 384 384" style="enable-background:new -121.2 205.2 384 384;" xml:space="preserve">
<style type="text/css">
	.st0{opacity:0.8;fill:#FFFFFF;enable-background:new    ;}
</style>
<path class="st0" d="M35.4,317.7V328H8.8v74.3H-3V328h-26.6v-10.3H35.4z"/>
<path class="st0" d="M103.8,369c0,5.1-0.7,9.6-2.2,13.6c-1.4,4.1-3.6,7.5-6.2,10.5s-5.8,5.2-9.5,6.8c-3.7,1.6-7.6,2.3-12,2.3
	c-4.3,0-8.3-0.8-12-2.3c-3.7-1.6-6.8-3.9-9.5-6.8c-2.6-2.9-4.7-6.4-6.2-10.5C44.8,378.5,44,374,44,369s0.7-9.5,2.2-13.6
	c1.4-4.1,3.6-7.6,6.2-10.6c2.6-2.9,5.8-5.2,9.5-6.8c3.7-1.6,7.6-2.3,12-2.3c4.4,0,8.3,0.8,12,2.3c3.7,1.6,6.8,3.9,9.5,6.8
	c2.6,2.9,4.7,6.4,6.2,10.6C103.1,359.4,103.8,364,103.8,369L103.8,369L103.8,369z M92,369c0-7.1-1.6-12.8-4.8-17
	c-3.3-4.2-7.6-6.3-13.1-6.3c-5.5,0-9.9,2.1-13.1,6.3c-3.3,4.2-4.8,9.9-4.8,17s1.6,12.8,4.8,17c3.2,4.2,7.6,6.3,13.1,6.3
	c5.5,0,9.9-2.1,13.1-6.3C90.4,381.8,92,376.1,92,369L92,369z"/>
<path class="st0" d="M152.3,402.2c-5.1,0-9.7-0.8-13.5-2.4c-3.9-1.6-7.1-3.9-9.8-6.8c-2.6-2.9-4.6-6.4-5.9-10.5
	c-1.3-4.1-1.9-8.4-1.9-13.3c0-4.9,0.7-9.4,2.1-13.4c1.4-4.1,3.5-7.6,6-10.6c2.5-2.9,5.8-5.3,9.6-6.9c3.8-1.6,8-2.5,12.6-2.5
	c2.8,0,5.7,0.2,8.5,0.7s5.6,1.2,8.1,2.3l-2.5,9.7c-1.7-0.8-3.7-1.4-5.9-1.9c-2.2-0.5-4.6-0.7-7.1-0.7c-6.3,0-11.2,2-14.5,6
	c-3.4,4-5.1,9.8-5.1,17.5c0,3.5,0.4,6.5,1.1,9.4c0.8,2.8,2,5.3,3.7,7.3c1.6,2,3.8,3.6,6.4,4.7c2.6,1.1,5.8,1.6,9.6,1.6
	c3.1,0,5.7-0.3,8.1-0.8c2.4-0.6,4.4-1.2,5.7-1.8l1.6,9.6c-0.6,0.4-1.6,0.8-2.8,1.1c-1.2,0.4-2.6,0.7-4.2,1c-1.5,0.3-3.2,0.5-5,0.7
	C155.6,402.1,153.9,402.2,152.3,402.2L152.3,402.2z"/>
</svg>
