<?xml version="1.0" encoding="utf-8"?>
<!-- Generator: Adobe Illustrator 16.0.0, SVG Export Plug-In . SVG Version: 6.00 Build 0)  -->
<!DOCTYPE svg PUBLIC "-//W3C//DTD SVG 1.1//EN" "http://www.w3.org/Graphics/SVG/1.1/DTD/svg11.dtd">
<svg version="1.1" id="Layer_1" xmlns="http://www.w3.org/2000/svg" xmlns:xlink="http://www.w3.org/1999/xlink" x="0px" y="0px"
	 width="375.57px" height="375.57px" viewBox="0 0 375.57 375.57" enable-background="new 0 0 375.57 375.57" xml:space="preserve">
<radialGradient id="SVGID_1_" cx="283.1855" cy="558.2146" r="197.7443" fx="166.1135" fy="466.2224" gradientTransform="matrix(1 0 0 1 -112 -415.4297)" gradientUnits="userSpaceOnUse">
	<stop  offset="0" style="stop-color:#C6E1E7"/>
	<stop  offset="1" style="stop-color:#B5D0D3"/>
</radialGradient>
<path fill="url(#SVGID_1_)" d="M375.568,166.055c0-67.889-84.074-122.921-187.783-122.921S0.002,98.168,0.002,166.055
	c0,67.886,84.074,122.919,187.783,122.919c13.967,0,27.574-1.008,40.675-2.9h-0.005l90.682,46.359l-13.75-70.557l0,0
	C348.176,239.35,375.568,204.799,375.568,166.055z"/>
<g opacity="0.8">
	<path fill="#FFFFFF" d="M153.962,109.634v10.08h-26.16v73.08h-11.64v-73.08h-26.16v-10.08H153.962z"/>
</g>
<circle opacity="0.8" fill="#FFFFFF" enable-background="new    " cx="121.982" cy="222.961" r="9.6"/>
<circle opacity="0.8" fill="#FFFFFF" enable-background="new    " cx="191.956" cy="222.961" r="9.6"/>
<g opacity="0.8">
	<path fill="#FFFFFF" d="M221.234,160.034c0,4.962-0.721,9.44-2.159,13.44c-1.438,4.001-3.462,7.438-6.062,10.317
		c-2.601,2.881-5.699,5.103-9.3,6.66c-3.601,1.563-7.521,2.34-11.76,2.34c-4.242,0-8.161-0.777-11.761-2.34
		c-3.601-1.56-6.701-3.779-9.301-6.66c-2.601-2.88-4.619-6.316-6.06-10.317c-1.44-4-2.16-8.479-2.16-13.44
		c0-4.879,0.72-9.339,2.16-13.38c1.44-4.039,3.459-7.5,6.06-10.38c2.6-2.88,5.7-5.102,9.301-6.66c3.6-1.562,7.519-2.34,11.761-2.34
		c4.237,0,8.16,0.778,11.76,2.34c3.601,1.561,6.699,3.78,9.3,6.66c2.6,2.88,4.62,6.341,6.062,10.38
		C220.516,150.695,221.234,155.155,221.234,160.034z M209.596,160.034c0-7.038-1.58-12.618-4.74-16.74
		c-3.16-4.119-7.459-6.18-12.897-6.18c-5.442,0-9.742,2.061-12.901,6.18c-3.161,4.122-4.74,9.702-4.74,16.74
		c0,7.041,1.579,12.621,4.74,16.74c3.159,4.121,7.459,6.18,12.901,6.18c5.438,0,9.737-2.059,12.897-6.18
		C208.016,172.655,209.596,167.075,209.596,160.034z"/>
</g>
<circle opacity="0.8" fill="#FFFFFF" enable-background="new    " cx="261.928" cy="222.961" r="9.6"/>
<g opacity="0.8">
	<path fill="#FFFFFF" d="M268.889,192.794c-5.041,0-9.462-0.801-13.261-2.397c-3.801-1.602-7.001-3.84-9.601-6.722
		c-2.602-2.88-4.541-6.3-5.819-10.26c-1.28-3.96-1.92-8.34-1.92-13.14s0.698-9.199,2.101-13.2c1.398-4,3.379-7.459,5.939-10.38
		c2.559-2.919,5.699-5.199,9.42-6.84c3.72-1.641,7.859-2.46,12.42-2.46c2.799,0,5.6,0.238,8.4,0.72
		c2.799,0.479,5.479,1.242,8.039,2.28l-2.521,9.479c-1.68-0.799-3.621-1.438-5.818-1.92c-2.201-0.479-4.541-0.72-7.021-0.72
		c-6.24,0-11.021,1.961-14.34,5.88c-3.32,3.921-4.979,9.642-4.979,17.16c0,3.358,0.38,6.439,1.142,9.24
		c0.759,2.801,1.959,5.199,3.6,7.198c1.639,2.001,3.738,3.54,6.3,4.62c2.56,1.08,5.681,1.62,9.36,1.62c2.959,0,5.64-0.279,8.04-0.84
		c2.399-0.559,4.278-1.159,5.64-1.8l1.561,9.358c-0.641,0.4-1.561,0.779-2.76,1.142c-1.201,0.358-2.563,0.679-4.08,0.96
		c-1.521,0.279-3.141,0.52-4.858,0.721C272.146,192.693,270.486,192.794,268.889,192.794z"/>
</g>
</svg>
