<svg xmlns="http://www.w3.org/2000/svg" width="375.57" height="375.57" viewBox="0 0 375.57 375.57"><path fill="#FFF" d="M153.962 109.634v10.08h-26.16v73.08h-11.64v-73.08h-26.16v-10.08h63.96zm67.272 50.4c0 4.962-.72 9.44-2.16 13.44-1.437 4-3.46 7.438-6.06 10.316-2.603 2.88-5.7 5.104-9.302 6.66-3.602 1.563-7.52 2.34-11.76 2.34-4.242 0-8.16-.776-11.76-2.34-3.602-1.56-6.702-3.78-9.302-6.66-2.6-2.88-4.62-6.315-6.06-10.316-1.44-4-2.16-8.48-2.16-13.44 0-4.88.72-9.34 2.16-13.38 1.44-4.04 3.46-7.5 6.06-10.38 2.6-2.88 5.7-5.103 9.3-6.66 3.6-1.563 7.52-2.34 11.762-2.34 4.236 0 8.16.777 11.76 2.34 3.602 1.56 6.7 3.78 9.3 6.66 2.6 2.88 4.62 6.34 6.063 10.38 1.44 4.04 2.16 8.5 2.16 13.38zm-11.638 0c0-7.038-1.58-12.618-4.74-16.74-3.16-4.12-7.46-6.18-12.896-6.18-5.442 0-9.742 2.06-12.9 6.18-3.162 4.122-4.74 9.702-4.74 16.74 0 7.04 1.578 12.62 4.74 16.74 3.158 4.12 7.458 6.18 12.9 6.18 5.438 0 9.736-2.06 12.896-6.18 3.16-4.12 4.74-9.7 4.74-16.74zm59.294 32.76c-5.042 0-9.463-.8-13.262-2.396-3.8-1.603-7-3.84-9.6-6.723-2.604-2.88-4.542-6.3-5.82-10.26-1.28-3.96-1.92-8.34-1.92-13.14s.698-9.2 2.1-13.2c1.4-4 3.38-7.46 5.94-10.38 2.56-2.92 5.7-5.2 9.42-6.84 3.72-1.642 7.86-2.46 12.42-2.46 2.8 0 5.6.237 8.4.72 2.8.48 5.48 1.242 8.04 2.28l-2.522 9.48c-1.68-.8-3.62-1.44-5.818-1.92-2.2-.48-4.54-.72-7.02-.72-6.24 0-11.022 1.96-14.34 5.88-3.32 3.92-4.98 9.64-4.98 17.16 0 3.356.38 6.437 1.143 9.24.76 2.8 1.96 5.197 3.6 7.196 1.64 2.004 3.74 3.54 6.304 4.62 2.56 1.08 5.68 1.62 9.36 1.62 2.958 0 5.64-.276 8.04-.84 2.398-.556 4.277-1.156 5.64-1.8l1.56 9.36c-.64.4-1.56.78-2.76 1.143-1.2.358-2.563.68-4.08.96-1.52.28-3.14.52-4.857.722-1.73.2-3.39.302-4.986.302z" opacity=".8"/></svg>