<?xml version="1.0" encoding="utf-8"?>
<!-- Generator: Adobe Illustrator 16.0.0, SVG Export Plug-In . SVG Version: 6.00 Build 0)  -->
<!DOCTYPE svg PUBLIC "-//W3C//DTD SVG 1.1//EN" "http://www.w3.org/Graphics/SVG/1.1/DTD/svg11.dtd">
<svg version="1.1" id="Layer_1" xmlns="http://www.w3.org/2000/svg" xmlns:xlink="http://www.w3.org/1999/xlink" x="0px" y="0px"
	 width="375.57px" height="375.57px" viewBox="0 0 375.57 375.57" enable-background="new 0 0 375.57 375.57" xml:space="preserve">
<g opacity="0.8">
	<path fill="#FFFFFF" d="M268.889,192.794c-5.041,0-9.462-0.801-13.261-2.397c-3.801-1.602-7.001-3.84-9.601-6.722
		c-2.602-2.88-4.541-6.3-5.819-10.26c-1.28-3.96-1.92-8.34-1.92-13.14s0.698-9.199,2.101-13.2c1.398-4,3.379-7.459,5.939-10.38
		c2.559-2.919,5.699-5.199,9.42-6.84c3.72-1.641,7.859-2.46,12.42-2.46c2.799,0,5.6,0.238,8.4,0.72
		c2.799,0.479,5.479,1.242,8.039,2.28l-2.521,9.479c-1.68-0.799-3.621-1.438-5.818-1.92c-2.201-0.479-4.541-0.72-7.021-0.72
		c-6.24,0-11.021,1.961-14.34,5.88c-3.32,3.921-4.979,9.642-4.979,17.16c0,3.358,0.38,6.439,1.142,9.24
		c0.759,2.801,1.959,5.199,3.6,7.198c1.639,2.001,3.738,3.54,6.3,4.62c2.56,1.08,5.681,1.62,9.36,1.62c2.959,0,5.64-0.279,8.04-0.84
		c2.399-0.559,4.278-1.159,5.64-1.8l1.561,9.358c-0.641,0.4-1.561,0.779-2.76,1.142c-1.201,0.358-2.563,0.679-4.08,0.96
		c-1.521,0.279-3.141,0.52-4.858,0.721C272.146,192.693,270.486,192.794,268.889,192.794z"/>
</g>
</svg>
