<?xml version="1.0" encoding="utf-8"?>
<!-- Generator: Adobe Illustrator 16.0.0, SVG Export Plug-In . SVG Version: 6.00 Build 0)  -->
<!DOCTYPE svg PUBLIC "-//W3C//DTD SVG 1.1//EN" "http://www.w3.org/Graphics/SVG/1.1/DTD/svg11.dtd">
<svg version="1.1" id="Layer_1" xmlns="http://www.w3.org/2000/svg" xmlns:xlink="http://www.w3.org/1999/xlink" x="0px" y="0px"
	 width="920px" height="528.572px" viewBox="0 0 920 528.572" enable-background="new 0 0 920 528.572" xml:space="preserve">
<g>
	<g>
		<path fill="#FFFFFF" d="M464.66,24.258c0-2.568-2.083-4.65-4.652-4.65c-2.568,0-4.65,2.082-4.65,4.65
			c0,2.568,2.082,4.65,4.65,4.65C462.577,28.909,464.66,26.827,464.66,24.258z M457.227,24.258c0-1.533,1.248-2.782,2.782-2.782
			c1.535,0,2.784,1.249,2.784,2.782c0,1.535-1.249,2.782-2.784,2.782C458.475,27.041,457.227,25.793,457.227,24.258z"/>
		<path fill="#FFFFFF" d="M122.034,38.949v420.277c0,1.289,1.046,2.336,2.335,2.336h672.444c1.29,0,2.335-1.047,2.335-2.336V38.949
			c0-1.29-1.045-2.335-2.335-2.335H124.369C123.08,36.614,122.034,37.659,122.034,38.949z M796.813,459.226H124.369V38.949h672.444
			V459.226z"/>
		<path fill="#FFFFFF" d="M311.768,516.583c-0.971-0.667-3.592-0.903-5.539-0.903c-0.234,0-0.47,0.002-0.704,0.011
			c-3.851,0.111-4.102,0.963-4.222,1.371c-0.113,0.384-0.031,0.931,0.535,1.318c0.971,0.667,3.591,0.904,5.538,0.904
			c0.234,0,0.47-0.004,0.705-0.011c3.851-0.112,4.101-0.962,4.222-1.371C312.415,517.518,312.333,516.971,311.768,516.583z"/>
		<path fill="#FFFFFF" d="M609.981,515.69c-0.233-0.009-0.47-0.011-0.704-0.011c-1.948,0-4.568,0.236-5.537,0.903
			c-0.567,0.389-0.648,0.936-0.536,1.319c0.121,0.409,0.372,1.259,4.223,1.371c0.233,0.007,0.469,0.011,0.704,0.011
			c0.001,0,0,0,0.001,0c1.946,0,4.564-0.237,5.539-0.904c0.564-0.388,0.646-0.936,0.533-1.318
			C614.084,516.653,613.831,515.801,609.981,515.69z"/>
		<path fill="#FFFFFF" d="M87.196,504.661c-0.742-2.471-1.146-5.087-1.146-7.799V28.953c0-14.959,12.126-27.084,27.084-27.084
			h693.925c14.958,0,27.084,12.125,27.084,27.084v467.909c0,2.712-0.402,5.328-1.146,7.799h1.938
			c0.696-2.483,1.076-5.097,1.076-7.799V28.953C836.013,12.989,823.025,0,807.061,0H113.135C97.171,0,84.183,12.989,84.183,28.953
			v467.909c0,2.702,0.38,5.315,1.076,7.799H87.196z"/>
		<path fill="#FFFFFF" d="M829.065,504.661h1.479c0.817-2.454,1.267-5.074,1.267-7.799V28.953c0-13.647-11.104-24.75-24.75-24.75
			H113.135c-13.647,0-24.75,11.103-24.75,24.75v467.909c0,2.725,0.449,5.345,1.266,7.799h1.479
			c-0.868-2.439-1.344-5.064-1.344-7.799V28.953c0-12.874,10.474-23.349,23.348-23.349h693.925
			c12.875,0,23.349,10.475,23.349,23.349v467.909C830.409,499.596,829.933,502.221,829.065,504.661z"/>
		<path fill="#FFFFFF" d="M826.207,497.423c0,4.958-3.031,7.217-5.849,7.217h-0.163v0.021h4.97c1.69-1.48,2.909-3.867,2.909-7.237
			v-11.267V28.953c0-11.587-9.426-21.014-21.014-21.014H113.135c-11.587,0-21.014,9.426-21.014,21.014v457.204v11.267
			c0,3.37,1.258,5.757,2.944,7.237h4.706v-0.021h-0.052c-2.215,0-5.729-1.96-5.729-7.217v-11.267V28.953
			c0-10.557,8.589-19.146,19.146-19.146h693.925c10.557,0,19.146,8.589,19.146,19.146v457.204V497.423z"/>
		<path fill="#FFFFFF" d="M920,508.667v-2.102c0-1.031-0.837-1.868-1.868-1.868H533.409c-0.44,0-0.846,0.152-1.165,0.409H382.282
			c-0.319-0.257-0.724-0.409-1.166-0.409H1.867c-1.031,0-1.867,0.837-1.867,1.868v1.653c0,0.763,0.316,1.48,0.938,2.133h0.001
			c0.666,0.696,2.692,2.817,16.967,6.023c8.893,1.998,20.626,3.999,33.932,5.79c30.262,4.07,63.407,6.406,90.939,6.406h614.129
			c56.727,0,95.927-4.026,118.823-7.404c22.607-3.336,40.435-7.752,43.479-10.762c0.009-0.009,0.019-0.021,0.027-0.031
			c0.006-0.007,0.015-0.012,0.022-0.019c0.034-0.037,0.059-0.076,0.094-0.113c0.012-0.017,0.027-0.032,0.041-0.051
			C919.788,509.723,920,509.214,920,508.667z M918.132,508.667c0,0.115-0.08,0.248-0.22,0.394H535.277v-2.086v-0.409h382.854
			C918.132,506.566,918.132,508.2,918.132,508.667z M533.409,506.975c0,0.75,0,1.109,0,2.086c-0.909,0.913-2.376,1.678-5.113,1.678
			c-2.249,0-28.039,0-50.932,0c0,0-19.405,0-40.204,0c-22.891,0-47.469,0-49.717,0c-2.738,0-5.417-0.765-6.327-1.678l0,0
			c0-1.095,0-1.562,0-2.086H533.409z M1.867,506.566h377.381v0.409v2.086H2.291c-0.278-0.289-0.423-0.571-0.423-0.842
			C1.867,507.674,1.867,506.566,1.867,506.566z M756.907,526.705c0,0-591.715,0-614.129,0c-55.189,0-121.005-9.221-137.178-15.769
			l-0.055-0.007h374.93c1.732,1.149,4.69,1.678,6.968,1.678h49.717h40.204h50.932c2.466,0,4.376-0.551,5.814-1.678H914.22
			C900.292,516.142,848.853,526.705,756.907,526.705z"/>
	</g>
	<rect x="124.369" y="38.949" opacity="0.1" fill="#FFFFFF" width="672.444" height="420.277"/>
</g>
</svg>
