<svg xmlns="http://www.w3.org/2000/svg" width="820" height="471.126" viewBox="50 28.727 820 471.126"><g fill="#FFF"><path d="M464.153 50.348c0-2.29-1.856-4.145-4.146-4.145-2.288 0-4.144 1.856-4.144 4.145 0 2.29 1.856 4.145 4.144 4.145 2.29 0 4.146-1.854 4.146-4.145zm-6.625 0c0-1.366 1.113-2.48 2.48-2.48s2.48 1.115 2.48 2.48c0 1.37-1.115 2.48-2.488 2.48-1.368 0-2.48-1.11-2.48-2.48h.008zM158.77 63.444v374.593c0 1.15.932 2.083 2.08 2.083H760.2c1.15 0 2.076-.935 2.076-2.083V63.444c0-1.15-.933-2.082-2.082-2.082H160.852c-1.15 0-2.082.93-2.082 2.082zm601.434 374.593H160.85V63.444H760.2v374.593h.004zM327.88 489.16c-.864-.595-3.202-.806-4.937-.806-.208 0-.42.002-.627.01-3.43.1-3.656.86-3.763 1.223-.1.343-.027.83.477 1.175.865.595 3.2.806 4.936.806.21 0 .42-.003.628-.01 3.44-.1 3.664-.858 3.77-1.222.098-.343.027-.83-.475-1.177h-.01zm265.8-.796c-.21-.01-.42-.01-.628-.01-1.736 0-4.072.21-4.936.805-.506.34-.578.83-.478 1.17.106.36.33 1.12 3.764 1.22.208.01.42.01.627.01 1.73 0 4.07-.21 4.94-.81.5-.35.57-.84.47-1.18-.11-.37-.33-1.13-3.77-1.22h-.01z"/><path d="M127.718 478.533c-.66-2.2-1.02-4.533-1.02-6.95V54.533c0-13.333 10.807-24.14 24.14-24.14h618.5c13.33 0 24.138 10.803 24.138 24.137v417.05c0 2.415-.357 4.74-1.02 6.952h1.726c.62-2.22.96-4.546.96-6.952V54.53c.007-14.224-11.57-25.803-25.805-25.803H150.84c-14.232 0-25.807 11.58-25.807 25.806v417.05c0 2.407.34 4.736.96 6.95h1.724z"/><path d="M788.95 478.533h1.318c.728-2.187 1.128-4.522 1.128-6.95V54.533c0-12.164-9.894-22.06-22.06-22.06H150.842c-12.164 0-22.06 9.896-22.06 22.06v417.05c0 2.428.4 4.764 1.128 6.952h1.32c-.774-2.176-1.2-4.516-1.2-6.952V54.533c0-11.475 9.335-20.81 20.81-20.81h618.494c11.47 0 20.807 9.335 20.807 20.81V471.58c0 2.44-.42 4.778-1.19 6.954h.01z"/><path d="M786.402 472.082c0 4.42-2.7 6.433-5.214 6.433h-.145v.02h4.43c1.506-1.32 2.594-3.447 2.594-6.45V54.535c0-10.33-8.402-18.733-18.73-18.733h-618.5c-10.327 0-18.73 8.396-18.73 18.727v417.55c0 3 1.124 5.13 2.63 6.45h4.198v-.02h-.044c-1.97 0-5.1-1.75-5.1-6.44V54.53c0-9.408 7.66-17.063 17.07-17.063h618.49c9.41 0 17.07 7.656 17.07 17.065v417.55h-.01zM870 482.104v-1.873c0-.91-.746-1.66-1.665-1.66H525.43c-.392 0-.754.14-1.038.37H390.73c-.286-.23-.646-.36-1.04-.36H51.664c-.918 0-1.664.75-1.664 1.67v1.478c0 .68.282 1.32.836 1.9.595.625 2.4 2.515 15.124 5.375 7.926 1.78 18.384 3.564 30.244 5.16 26.973 3.628 56.515 5.713 81.055 5.713h547.37c50.56 0 85.5-3.59 105.9-6.6 20.14-2.97 36.03-6.91 38.74-9.59l.02-.024c0-.01.01-.01.02-.02.03-.03.05-.065.08-.1.01-.012.023-.025.034-.043.354-.418.543-.87.543-1.36l.01-.01zm-1.665 0c0 .103-.07.22-.196.35H527.09v-2.218h341.24c.003 0 .003 1.462.003 1.87v-.002zm-342.905-1.508v1.86c-.81.82-2.12 1.497-4.563 1.497h-125.54c-2.442 0-4.828-.677-5.64-1.498V480.6H525.43v-.004zm-473.773-.365h336.36v2.23H52.042c-.246-.25-.375-.51-.375-.75v-1.47h-.008zm672.97 17.96H177.252c-49.187 0-107.85-8.22-122.264-14.05h-.05 334.177c1.544 1.02 4.18 1.49 6.212 1.49h125.54c2.198 0 3.9-.49 5.182-1.5h338.79c-12.42 4.65-58.26 14.06-140.21 14.06l-.01.01z"/><path opacity=".1" d="M160.852 63.444h599.35v374.593h-599.35V63.444z"/></g></svg>