<svg xmlns="http://www.w3.org/2000/svg" width="920" height="528.572" viewBox="0 0 920 528.572"><g fill="#FFF"><path d="M464.66 24.258c0-2.568-2.083-4.65-4.652-4.65-2.568 0-4.65 2.082-4.65 4.65 0 2.568 2.082 4.65 4.65 4.65 2.57 0 4.652-2.08 4.652-4.65zm-7.433 0c0-1.533 1.248-2.782 2.782-2.782s2.78 1.25 2.78 2.782c0 1.535-1.25 2.782-2.79 2.782-1.535 0-2.783-1.247-2.783-2.782zM122.034 38.95v420.276c0 1.29 1.046 2.336 2.335 2.336h672.44c1.29 0 2.33-1.047 2.33-2.336V38.95c0-1.29-1.047-2.336-2.337-2.336H124.37c-1.29 0-2.336 1.045-2.336 2.335zm674.78 420.276H124.368V38.95H796.81v420.276zm-485.046 57.357c-.97-.667-3.592-.903-5.54-.903-.233 0-.47.002-.703.01-3.85.112-4.102.964-4.222 1.372-.113.384-.03.93.535 1.318.97.667 3.59.904 5.538.904.234 0 .47-.004.705-.01 3.86-.113 4.11-.963 4.23-1.372.11-.384.03-.93-.533-1.32zm298.212-.893c-.232-.01-.47-.01-.703-.01-1.948 0-4.568.235-5.537.902-.567.39-.648.936-.536 1.32.12.408.372 1.258 4.223 1.37.233.007.47.01.704.01h.01c1.947 0 4.565-.236 5.54-.903.564-.39.646-.94.53-1.32-.12-.41-.37-1.26-4.22-1.37z"/><path d="M87.196 504.66c-.742-2.47-1.146-5.086-1.146-7.798V28.952c0-14.958 12.126-27.083 27.084-27.083H807.06c14.957 0 27.083 12.12 27.083 27.08v467.91c0 2.71-.402 5.32-1.146 7.8h1.938c.696-2.49 1.076-5.1 1.076-7.8V28.95C836.02 12.99 823.03 0 807.06 0H113.136C97.17 0 84.183 12.99 84.183 28.953v467.91c0 2.7.38 5.314 1.076 7.798h1.93z"/><path d="M829.065 504.66h1.48c.816-2.453 1.266-5.073 1.266-7.798V28.952c0-13.646-11.1-24.75-24.75-24.75H113.14c-13.647 0-24.75 11.104-24.75 24.75v467.91c0 2.725.45 5.345 1.266 7.8h1.48c-.868-2.44-1.344-5.065-1.344-7.8V28.952c0-12.873 10.473-23.348 23.347-23.348h693.92c12.87 0 23.343 10.475 23.343 23.35V496.86c0 2.734-.475 5.36-1.343 7.8z"/><path d="M826.207 497.423c0 4.958-3.03 7.217-5.85 7.217h-.162v.02h4.97c1.69-1.48 2.91-3.866 2.91-7.236V28.954c0-11.588-9.427-21.015-21.015-21.015H113.135c-11.587 0-21.014 9.42-21.014 21.01v468.47c0 3.37 1.26 5.76 2.95 7.24h4.71v-.02h-.05c-2.216 0-5.73-1.96-5.73-7.22V28.95c0-10.556 8.59-19.145 19.146-19.145h693.92c10.56 0 19.148 8.59 19.148 19.146v468.47zM920 508.667v-2.102c0-1.03-.837-1.868-1.868-1.868H533.41c-.44 0-.847.152-1.166.41H382.282c-.32-.258-.724-.41-1.166-.41H1.866c-1.03 0-1.866.837-1.866 1.868v1.653c0 .763.316 1.48.938 2.133.667.7 2.693 2.82 16.968 6.03 8.893 2 20.626 4 33.932 5.79 30.262 4.07 63.407 6.41 90.94 6.41h614.128c56.727 0 95.927-4.026 118.823-7.404 22.6-3.336 40.43-7.752 43.47-10.762l.026-.03c.006-.007.015-.012.022-.02.033-.036.06-.075.093-.112.013-.015.028-.03.04-.05.398-.466.61-.975.61-1.522zm-1.868 0c0 .115-.08.248-.22.394H535.277v-2.49H918.13c.002 0 .002 1.64.002 2.1zm-384.723-1.692v2.086c-.91.92-2.38 1.68-5.12 1.68H387.44c-2.74 0-5.417-.76-6.327-1.68v-2.08H533.41zm-531.55-.41h377.38v2.496H2.29c-.277-.28-.422-.57-.422-.84v-1.65zm755.04 20.14H142.77c-55.187 0-121.003-9.22-137.176-15.77l-.056-.006h374.93c1.732 1.14 4.69 1.67 6.97 1.67h140.85c2.465 0 4.375-.55 5.813-1.68h380.11c-13.93 5.212-65.364 15.775-157.31 15.775z"/><path opacity=".1" d="M124.37 38.95h672.443v420.276H124.37z"/></g></svg>