<?xml version="1.0" encoding="utf-8"?>
<!-- Generator: Adobe Illustrator 19.1.1, SVG Export Plug-In . SVG Version: 6.00 Build 0)  -->
<svg version="1.1" id="Layer_1" xmlns="http://www.w3.org/2000/svg" xmlns:xlink="http://www.w3.org/1999/xlink" x="0px" y="0px"
	 viewBox="104 161.9 820 471.1" style="enable-background:new 104 161.9 820 471.1;" xml:space="preserve">
<style type="text/css">
	.st0{fill:#FFFFFF;}
	.st1{opacity:0.1;fill:#FFFFFF;enable-background:new    ;}
</style>
<g>
	<path class="st0" d="M518.2,183.5c0-2.3-1.9-4.1-4.1-4.1c-2.3,0-4.1,1.9-4.1,4.1c0,2.3,1.9,4.1,4.1,4.1
		C516.3,187.6,518.2,185.8,518.2,183.5z M511.5,183.5c0-1.4,1.1-2.5,2.5-2.5c1.4,0,2.5,1.1,2.5,2.5c0,1.4-1.1,2.5-2.5,2.5
		C512.6,186,511.5,184.9,511.5,183.5L511.5,183.5z M212.8,196.6v374.6c0,1.2,0.9,2.1,2.1,2.1h599.3c1.2,0,2.1-0.9,2.1-2.1V196.6
		c0-1.1-0.9-2.1-2.1-2.1H214.9C213.7,194.5,212.8,195.4,212.8,196.6z M814.2,571.2H214.9V196.6h599.3L814.2,571.2L814.2,571.2z
		 M381.9,622.3c-0.9-0.6-3.2-0.8-4.9-0.8c-0.2,0-0.4,0-0.6,0c-3.4,0.1-3.7,0.9-3.8,1.2c-0.1,0.3,0,0.8,0.5,1.2
		c0.9,0.6,3.2,0.8,4.9,0.8c0.2,0,0.4,0,0.6,0c3.4-0.1,3.7-0.9,3.8-1.2C382.5,623.1,382.4,622.7,381.9,622.3L381.9,622.3L381.9,622.3
		z M647.7,621.5c-0.2,0-0.4,0-0.6,0c-1.7,0-4.1,0.2-4.9,0.8c-0.5,0.3-0.6,0.8-0.5,1.2c0.1,0.4,0.3,1.1,3.8,1.2c0.2,0,0.4,0,0.6,0
		c1.7,0,4.1-0.2,4.9-0.8c0.5-0.3,0.6-0.8,0.5-1.2C651.3,622.3,651.1,621.6,647.7,621.5L647.7,621.5L647.7,621.5z"/>
	<path class="st0" d="M181.7,611.7c-0.7-2.2-1-4.5-1-7v-417c0-13.3,10.8-24.1,24.1-24.1h618.5c13.3,0,24.1,10.8,24.1,24.1v417
		c0,2.4-0.4,4.7-1,7h1.7c0.6-2.2,1-4.5,1-7v-417c0-14.2-11.6-25.8-25.8-25.8H204.8c-14.2,0-25.8,11.6-25.8,25.8v417
		c0,2.4,0.3,4.7,1,7H181.7L181.7,611.7z"/>
	<path class="st0" d="M843,611.7h1.3c0.7-2.2,1.1-4.5,1.1-7v-417c0-12.2-9.9-22.1-22.1-22.1H204.8c-12.2,0-22.1,9.9-22.1,22.1v417
		c0,2.4,0.4,4.8,1.1,7h1.3c-0.8-2.2-1.2-4.5-1.2-7v-417c0-11.5,9.3-20.8,20.8-20.8h618.5c11.5,0,20.8,9.3,20.8,20.8v417
		C844.1,607.2,843.7,609.5,843,611.7L843,611.7L843,611.7z"/>
	<path class="st0" d="M840.4,605.2c0,4.4-2.7,6.4-5.2,6.4H835v0h4.4c1.5-1.3,2.6-3.4,2.6-6.5V187.7c0-10.3-8.4-18.7-18.7-18.7H204.8
		c-10.3,0-18.7,8.4-18.7,18.7v417.5c0,3,1.1,5.1,2.6,6.5h4.2v0h0c-2,0-5.1-1.8-5.1-6.4V187.7c0-9.4,7.7-17.1,17.1-17.1h618.5
		c9.4,0,17.1,7.7,17.1,17.1L840.4,605.2L840.4,605.2L840.4,605.2z M924,615.3v-1.9c0-0.9-0.7-1.7-1.7-1.7H579.4
		c-0.4,0-0.8,0.1-1,0.4H444.7c-0.3-0.2-0.6-0.4-1-0.4h-338c-0.9,0-1.7,0.8-1.7,1.7v1.5c0,0.7,0.3,1.3,0.8,1.9
		c0.6,0.6,2.4,2.5,15.1,5.4c7.9,1.8,18.4,3.6,30.2,5.2c27,3.6,56.5,5.7,81.1,5.7h547.4c50.6,0,85.5-3.6,105.9-6.6
		c20.1-3,36-6.9,38.7-9.6l0,0c0,0,0,0,0,0c0,0,0-0.1,0.1-0.1c0,0,0,0,0,0C923.8,616.2,924,615.8,924,615.3L924,615.3L924,615.3z
		 M922.3,615.3c0,0.1-0.1,0.2-0.2,0.4h-341v-2.2h341.2C922.3,613.4,922.3,614.8,922.3,615.3L922.3,615.3L922.3,615.3z M579.4,613.7
		v1.9c-0.8,0.8-2.1,1.5-4.6,1.5H449.3c-2.4,0-4.8-0.7-5.6-1.5v-1.9L579.4,613.7L579.4,613.7L579.4,613.7z M105.7,613.4H442v2.2H106
		c-0.2-0.3-0.4-0.5-0.4-0.8L105.7,613.4L105.7,613.4L105.7,613.4z M778.6,631.3H231.3c-49.2,0-107.8-8.2-122.3-14h0h334.2
		c1.5,1,4.2,1.5,6.2,1.5h125.5c2.2,0,3.9-0.5,5.2-1.5h338.8C906.4,621.9,860.6,631.3,778.6,631.3L778.6,631.3L778.6,631.3z"/>
	<path class="st1" d="M214.9,196.6h599.3v374.6H214.9L214.9,196.6L214.9,196.6z"/>
</g>
</svg>
