<svg xmlns="http://www.w3.org/2000/svg" width="200" height="417.335" viewBox="0 0 200 417.335"><g fill="#FFF"><path d="M191.198 12.154c-5.676-5.668-13.22-8.79-21.246-8.79H167.4V1.562l-.608-.466-1.01-.776-.42-.32H135.23l-.358.205-1.357.776-.782.45v1.94H32.895c-8.025 0-15.57 3.13-21.245 8.79-5.678 5.67-8.804 13.21-8.804 21.23v26.13h-1.16l-.456.46-.775.78L0 61.2v18.62l.455.455.776.776.46.46h1.16v17.07H1.69l-.455.46-.777.78-.454.458v14.22l.454.45.776.778.456.455h1.16V133H1.69l-.456.454-.78.774-.454.453v14.22l.454.456.776.78.457.46h1.16v236.73c0 8.017 3.125 15.556 8.802 21.226 5.67 5.667 13.22 8.79 21.24 8.79h137.06c8.02 0 15.57-3.123 21.24-8.79 5.68-5.67 8.8-13.21 8.8-21.23V33.38c0-8.018-3.12-15.557-8.8-21.226zM134.282 2.33l1.357-.777h29.19l1.01.776v1.03h-31.56V2.33zM13.112 13.617c5.284-5.278 12.31-8.185 19.782-8.185h137.06c7.472 0 14.497 2.907 19.782 8.185 5.285 5.278 8.195 12.297 8.195 19.762v6.46h-2.07v-6.48c0-14.29-11.6-25.88-25.9-25.88H32.9c-14.31 0-25.91 11.58-25.91 25.87v6.48H4.92v-6.46c0-7.468 2.91-14.487 8.193-19.765zM197.93 42.95v335.058h-2.07V42.95h2.07zm-4.142-9.588V387.3c0 13.127-10.693 23.807-23.838 23.807H32.894c-13.144 0-23.838-10.68-23.838-23.807V33.362c0-13.127 10.694-23.807 23.838-23.807h137.06c13.143 0 23.836 10.68 23.836 23.807zM4.916 150.582V42.95h2.07v335.058h-2.07V150.582zM2.33 79.948l-.777-.776V61.837l.776-.776h.51v18.89h-.51zm0 34.67l-.777-.775v-12.937c.208-.21.432-.433.776-.776h.51v14.49h-.51zm0 34.412l-.777-.776v-12.937c.208-.21.432-.432.776-.776h.51v14.49h-.51zm187.405 258.05c-5.285 5.28-12.31 8.186-19.783 8.186H32.894c-7.473 0-14.498-2.906-19.783-8.185s-8.19-12.29-8.19-19.76v-6.2h2.07v6.19c0 14.29 11.6 25.88 25.91 25.88h137.06c14.31 0 25.91-11.58 25.91-25.87v-6.185h2.07v6.206c0 7.466-2.91 14.485-8.19 19.764z"/><path d="M86.675 43.984h28.46c2.144 0 3.88-1.737 3.88-3.88 0-2.144-1.736-3.882-3.88-3.882h-28.46c-2.144 0-3.88 1.738-3.88 3.88 0 2.145 1.737 3.882 3.88 3.882zm0-5.692h28.46c.998 0 1.81.813 1.81 1.81s-.812 1.812-1.81 1.812h-28.46c-1 0-1.81-.813-1.81-1.81s.812-1.812 1.81-1.812zm97.283 23.028H18.37c-1.144 0-2.07.927-2.07 2.07v293.92c0 1.143.927 2.068 2.07 2.068h165.588c1.144 0 2.07-.926 2.07-2.07V63.39c0-1.14-.926-2.068-2.07-2.068zm0 295.99H18.37V63.39h165.588v293.92zm-82.665 11.383c-9.645 0-17.464 7.82-17.464 17.465 0 9.646 7.81 17.465 17.46 17.465s17.46-7.818 17.46-17.465c0-9.645-7.82-17.465-17.47-17.465zm0 32.86c-8.49 0-15.394-6.907-15.394-15.396s6.9-15.395 15.39-15.395 15.39 6.906 15.39 15.395-6.91 15.395-15.4 15.395zm-.13-372.67c2.426 0 4.4-1.974 4.4-4.398 0-2.426-1.975-4.398-4.4-4.398s-4.397 1.973-4.397 4.398 1.973 4.398 4.398 4.398zm0-7.245c1.57 0 2.848 1.277 2.848 2.847 0 1.568-1.27 2.846-2.84 2.846s-2.84-1.27-2.84-2.84c0-1.57 1.28-2.84 2.85-2.84z"/><circle cx="101.164" cy="24.416" r="1.552"/><path opacity=".1" d="M18.378 63.393h165.588v293.92H18.378z"/></g></svg>