<svg xmlns="http://www.w3.org/2000/svg" width="260" height="542.52" viewBox="19.996 41.74 260 542.52"><g fill="#FFF"><path d="M268.553 57.54c-7.377-7.367-17.186-11.428-27.616-11.428h-3.32v-2.34l-.788-.606-1.32-1.01-.55-.416h-39.17l-.465.267-1.767 1.01-1.016.582v2.51H62.764c-10.433 0-20.24 4.06-27.618 11.43-7.38 7.37-11.442 17.17-11.442 27.59v33.97h-1.51l-.59.59-1.01 1.01-.59.59v24.202l.59.592 1.01 1.007.59.59h1.5v22.195H22.19l-.592.59-1.005 1.01-.59.592v18.487l.59.59 1.01 1.007.59.59H23.7v21.865h-1.51l-.59.59-1.01 1.016-.592.59v18.488l.59.59 1.01 1.01.59.59h1.508v307.745c0 10.424 4.065 20.223 11.443 27.594 7.39 7.387 17.19 11.44 27.62 11.44h178.17c10.43 0 20.24-4.054 27.613-11.424 7.38-7.372 11.443-17.17 11.443-27.595V85.133c0-10.42-4.064-20.22-11.443-27.592zm-73.99-12.77l1.767-1.01h37.954l1.315 1.004v1.343h-41.04v-1.342.004zM37.048 59.443c6.87-6.862 16-10.64 25.716-10.64h178.173c9.714 0 18.846 3.778 25.716 10.64 6.87 6.86 10.654 15.984 10.654 25.69v8.402h-2.69V85.11c0-18.58-15.072-33.64-33.68-33.64H62.764c-18.6 0-33.678 15.06-33.678 33.64v8.426h-2.693v-8.403c0-9.703 3.783-18.828 10.655-25.69zm240.26 38.13v435.564h-2.69V97.573h2.693zm-5.38-12.463v460.11c0 17.063-13.905 30.95-30.99 30.95H62.763c-17.086 0-30.988-13.885-30.988-30.95V85.11c0-17.064 13.9-30.948 30.988-30.948h178.173c17.085 0 30.987 13.884 30.987 30.948h.003zM26.392 237.494V97.574h2.69V533.14h-2.69V237.493zM23.03 145.67l-1.01-1.01v-22.53l1.006-1.01h.673v24.554h-.68v-.002zm0 45.07l-1.01-1.01v-16.815l1.007-1.01h.676v18.835h-.676.002zm0 44.735l-1.01-1.01v-16.822l1.006-1.014h.676v18.83h-.676l.003.01zm243.62 335.458c-6.87 6.863-16.003 10.643-25.717 10.643H62.763c-9.713 0-18.847-3.78-25.716-10.634-6.87-6.86-10.653-15.985-10.653-25.69v-8.068h2.69v8.043c0 18.58 15.07 33.64 33.678 33.64h178.174c18.597 0 33.677-15.062 33.677-33.64v-8.042h2.687v8.07c0 9.7-3.786 18.826-10.65 25.688l.002-.008z"/><path d="M132.678 98.92h36.997c2.787 0 5.046-2.26 5.046-5.046 0-2.786-2.25-5.044-5.04-5.044h-37c-2.78 0-5.04 2.258-5.04 5.044 0 2.787 2.26 5.045 5.047 5.045zm0-7.402h36.997c1.3 0 2.355 1.057 2.355 2.355s-1.057 2.355-2.35 2.355h-36.996c-1.3 0-2.352-1.058-2.352-2.355s1.055-2.354 2.354-2.354l-.008-.01zm126.465 29.936H43.883c-1.486 0-2.69 1.205-2.69 2.69V506.23c0 1.485 1.204 2.69 2.69 2.69h215.26c1.485 0 2.69-1.205 2.69-2.69V124.145c0-1.486-1.204-2.69-2.69-2.69zm0 384.776H43.883V124.145h215.26V506.23zm-107.462 14.8c-12.53 0-22.7 10.164-22.7 22.703 0 12.54 10.17 22.7 22.71 22.7 12.54 0 22.704-10.162 22.704-22.7 0-12.54-10.164-22.703-22.703-22.704zm0 42.716c-11.03 0-20.01-8.98-20.01-20.013 0-11.036 8.98-20.014 20.01-20.014 11.04 0 20.02 8.97 20.02 20.01s-8.974 20.01-20.01 20.01zm-.16-484.458c3.15 0 5.72-2.566 5.72-5.718 0-3.153-2.564-5.718-5.717-5.718s-5.717 2.565-5.717 5.71 2.565 5.72 5.71 5.72l.007.006zm0-9.418c2.04 0 3.7 1.66 3.7 3.7s-1.66 3.7-3.7 3.7-3.7-1.662-3.7-3.702 1.66-3.698 3.7-3.698z"/><circle cx="151.513" cy="73.48" r="2.019"/><path opacity=".1" d="M43.894 124.15h215.26v382.085H43.894V124.15z"/></g></svg>