<svg xmlns="http://www.w3.org/2000/svg" width="220" height="459.079" viewBox="39.991 83.46 220 459.079"><g fill="#FFF"><path d="M250.318 96.83c-6.242-6.234-14.543-9.67-23.368-9.67h-2.81v-1.98l-.668-.513-1.117-.854-.465-.352h-33.146l-.394.23-1.496.86-.86.5v2.13H76.18c-8.83 0-17.127 3.438-23.37 9.674-6.245 6.236-9.683 14.53-9.683 23.346v28.744H41.85l-.5.5-.854.857-.5.5v20.48l.5.5.854.856.5.5h1.27v18.78h-1.273l-.5.5-.852.854-.5.5v15.64l.5.5.855.85.5.498h1.275v18.5h-1.278l-.5.5-.854.86-.5.5v15.64l.5.5.854.85.5.5h1.275v260.41c0 8.82 3.44 17.115 9.684 23.35 6.253 6.25 14.546 9.68 23.372 9.68h150.768c8.825 0 17.126-3.43 23.365-9.664 6.25-6.24 9.69-14.53 9.69-23.35V120.18c0-8.818-3.44-17.11-9.68-23.35h.01zm-62.61-10.806l1.495-.855h32.117l1.112.85v1.13h-34.73v-1.13h.005zM54.418 98.44c5.813-5.807 13.54-9.004 21.76-9.004h150.77c8.22 0 15.948 3.197 21.76 9.004 5.815 5.805 9.017 13.525 9.017 21.74v7.11h-2.276v-7.13c0-15.722-12.76-28.466-28.5-28.466H76.18c-15.74 0-28.5 12.744-28.5 28.466v7.13h-2.278v-7.11c0-8.21 3.202-15.933 9.017-21.74zm203.31 32.267V499.28h-2.278V130.706h2.28-.003zm-4.555-10.547v389.344c0 14.438-11.766 26.19-26.224 26.19H76.18c-14.46 0-26.223-11.75-26.223-26.19V120.16c0-14.44 11.762-26.188 26.222-26.188h150.77c14.45 0 26.22 11.748 26.22 26.188zM45.403 249.107v-118.4h2.275V499.28h-2.276V249.108zm-2.846-77.702l-.854-.854v-19.06l.85-.85h.57v20.78h-.575.01zm0 38.14l-.854-.856v-14.23l.852-.86h.572v15.94h-.572.002zm0 37.854l-.854-.86v-14.23l.85-.86h.573v15.93h-.572l.002.01zm206.15 283.86c-5.813 5.8-13.54 9-21.76 9H76.177c-8.22 0-15.95-3.2-21.76-9-5.815-5.81-9.016-13.53-9.016-21.74v-6.83h2.28v6.81c0 15.72 12.75 28.46 28.5 28.46h150.77c15.74 0 28.5-12.75 28.5-28.47v-6.8h2.28v6.83c0 8.205-3.2 15.93-9.01 21.734v-.007z"/><path d="M135.34 131.846h31.308c2.358 0 4.27-1.912 4.27-4.27s-1.903-4.27-4.264-4.27h-31.31c-2.353 0-4.265 1.912-4.265 4.27s1.91 4.27 4.27 4.27h-.01zm0-6.263h31.308c1.1 0 1.992.895 1.992 1.993s-.894 1.993-1.987 1.993h-31.307c-1.1 0-1.99-.9-1.99-2s.893-1.99 1.992-1.99l-.007-.01v.01zm107.015 25.33H60.203c-1.257 0-2.276 1.02-2.276 2.278v323.33c0 1.26 1.02 2.28 2.276 2.28h182.153c1.256 0 2.276-1.02 2.276-2.27V153.2c0-1.258-1.02-2.277-2.277-2.278zm0 325.6H60.203V153.19h182.153v323.322zm-90.933 12.522c-10.604 0-19.21 8.6-19.21 19.21 0 10.612 8.605 19.21 19.218 19.21 10.61 0 19.212-8.6 19.212-19.21 0-10.61-8.602-19.21-19.212-19.21h-.008zm0 36.146c-9.335 0-16.933-7.59-16.933-16.93s7.59-16.93 16.93-16.93 16.94 7.59 16.94 16.94-7.6 16.937-16.94 16.937l-.01.006zm-.136-409.94c2.665 0 4.84-2.17 4.84-4.84 0-2.66-2.17-4.83-4.838-4.83-2.667 0-4.837 2.17-4.837 4.83s2.17 4.84 4.84 4.84l.01.01zm0-7.97c1.726 0 3.13 1.41 3.13 3.13s-1.404 3.13-3.13 3.13c-1.728 0-3.132-1.4-3.132-3.13s1.405-3.13 3.132-3.13z"/><circle cx="151.279" cy="110.319" r="1.708"/><path opacity=".1" d="M60.212 153.195h182.152v323.32H60.212v-323.32z"/></g></svg>