<?xml version="1.0" encoding="utf-8"?>
<!-- Generator: Adobe Illustrator 16.0.0, SVG Export Plug-In . SVG Version: 6.00 Build 0)  -->
<!DOCTYPE svg PUBLIC "-//W3C//DTD SVG 1.1//EN" "http://www.w3.org/Graphics/SVG/1.1/DTD/svg11.dtd">
<svg version="1.1" id="Layer_1" xmlns="http://www.w3.org/2000/svg" xmlns:xlink="http://www.w3.org/1999/xlink" x="0px" y="0px"
	 width="300px" height="626.002px" viewBox="0 0 300 626.002" enable-background="new 0 0 300 626.002" xml:space="preserve">
<g>
	<g>
		<path fill="#FFFFFF" d="M286.796,18.231c-8.513-8.502-19.83-13.186-31.867-13.186H251.1V3.493V2.345l-0.911-0.699l-1.516-1.165
			L248.045,0h-0.791H203.46h-0.619l-0.537,0.307l-2.036,1.164l-1.173,0.671v1.351v1.552H49.34c-12.037,0-23.354,4.683-31.867,13.186
			C8.958,26.735,4.269,38.043,4.269,50.071v39.192H3.493H2.529l-0.682,0.682l-1.165,1.165L0,91.792v0.964v26.002v0.964l0.682,0.683
			l1.165,1.164l0.682,0.682h0.964h0.776v25.615H3.493H2.529l-0.682,0.682l-1.165,1.164L0,150.395v0.964v19.405v0.964l0.682,0.682
			l1.165,1.165l0.682,0.682h0.964h0.776v25.227H3.493H2.529l-0.682,0.682l-1.165,1.164L0,202.011v0.964v19.405v0.964l0.682,0.682
			l1.165,1.164l0.682,0.683h0.964h0.776v355.104c0,12.027,4.689,23.335,13.204,31.84c8.513,8.503,19.83,13.185,31.867,13.185
			h205.589c12.037,0,23.355-4.682,31.867-13.185c8.515-8.505,13.204-19.813,13.204-31.84V50.071
			C300,38.043,295.311,26.735,286.796,18.231z M201.423,3.493l2.037-1.165h43.794l1.518,1.165v1.552h-47.349V3.493z M19.667,20.428
			C27.594,12.51,38.131,8.15,49.34,8.15h205.589c11.209,0,21.747,4.36,29.674,12.277c7.928,7.917,12.293,18.445,12.293,29.643v9.696
			h-3.105v-9.724c0-21.438-17.398-38.816-38.861-38.816H49.34c-21.463,0-38.861,17.378-38.861,38.816v9.724H7.374v-9.696
			C7.374,38.873,11.739,28.345,19.667,20.428z M296.896,64.424v502.588h-3.105V64.424H296.896z M290.686,50.043V580.95
			c0,19.691-16.041,35.712-35.757,35.712H49.34c-19.715,0-35.756-16.021-35.756-35.712V50.043c0-19.691,16.041-35.711,35.756-35.711
			h205.589C274.645,14.333,290.686,30.352,290.686,50.043z M7.374,225.874v-2.329v-21.734v-2.328v-25.227v-2.329v-21.733v-2.329
			v-25.615v-2.329V91.591v-2.329V64.424h3.104v502.588H7.374V225.874z M3.493,119.922l-1.164-1.164V92.756
			c0.313-0.313,0.648-0.648,1.164-1.165h0.776v28.331H3.493z M3.493,171.928l-1.164-1.165v-19.405
			c0.313-0.313,0.648-0.648,1.164-1.164h0.776v21.733H3.493z M3.493,223.545l-1.164-1.165v-19.405
			c0.313-0.313,0.648-0.648,1.164-1.165h0.776v21.734H3.493z M284.603,610.622c-7.927,7.916-18.465,12.276-29.674,12.276H49.34
			c-11.208,0-21.747-4.36-29.673-12.276c-7.927-7.918-12.292-18.446-12.292-29.644v-9.309h3.104v9.28
			c0,21.438,17.398,38.816,38.861,38.816h205.589c21.463,0,38.861-17.378,38.861-38.816v-9.28h3.105v9.309
			C296.896,592.175,292.53,602.704,284.603,610.622z"/>
		<path fill="#FFFFFF" d="M130.013,65.977h42.691c3.215,0,5.821-2.606,5.821-5.822c0-3.214-2.606-5.821-5.821-5.821h-42.691
			c-3.215,0-5.821,2.607-5.821,5.821C124.191,63.371,126.797,65.977,130.013,65.977z M130.013,57.438h42.691
			c1.497,0,2.717,1.219,2.717,2.717c0,1.498-1.22,2.717-2.717,2.717h-42.691c-1.498,0-2.716-1.219-2.716-2.717
			C127.296,58.658,128.515,57.438,130.013,57.438z"/>
		<path fill="#FFFFFF" d="M275.938,91.979H27.555c-1.715,0-3.105,1.39-3.105,3.105v440.88c0,1.714,1.39,3.104,3.105,3.104h248.382
			c1.715,0,3.105-1.391,3.105-3.104V95.084C279.043,93.37,277.652,91.979,275.938,91.979z M275.938,535.964H27.555V95.084h248.382
			V535.964z"/>
		<path fill="#FFFFFF" d="M151.94,553.041c-14.468,0-26.197,11.729-26.197,26.196c0,14.469,11.729,26.196,26.197,26.196
			s26.196-11.728,26.196-26.196C178.137,564.77,166.408,553.041,151.94,553.041z M151.94,602.329
			c-12.733,0-23.092-10.358-23.092-23.092s10.359-23.092,23.092-23.092c12.733,0,23.092,10.358,23.092,23.092
			S164.674,602.329,151.94,602.329z"/>
		<path fill="#FFFFFF" d="M151.746,43.325c3.638,0,6.598-2.96,6.598-6.598s-2.96-6.598-6.598-6.598c-3.637,0-6.597,2.96-6.597,6.598
			S148.109,43.325,151.746,43.325z M151.746,32.458c2.354,0,4.27,1.916,4.27,4.269s-1.916,4.269-4.27,4.269
			c-2.353,0-4.269-1.916-4.269-4.269S149.393,32.458,151.746,32.458z"/>
		<circle fill="#FFFFFF" cx="151.746" cy="36.624" r="2.329"/>
	</g>
	<rect x="27.567" y="95.09" opacity="0.1" fill="#FFFFFF" width="248.382" height="440.88"/>
</g>
</svg>
