<?xml version="1.0" encoding="utf-8"?>
<!-- Generator: Adobe Illustrator 19.1.1, SVG Export Plug-In . SVG Version: 6.00 Build 0)  -->
<svg version="1.1" id="Layer_1" xmlns="http://www.w3.org/2000/svg" xmlns:xlink="http://www.w3.org/1999/xlink" x="0px" y="0px"
	 viewBox="-195 167.9 220 459.1" style="enable-background:new -195 167.9 220 459.1;" xml:space="preserve">
<style type="text/css">
	.st0{fill:#FFFFFF;}
	.st1{opacity:0.1;fill:#FFFFFF;enable-background:new    ;}
</style>
<g>
	<path class="st0" d="M15.3,181.3c-6.2-6.2-14.5-9.7-23.4-9.7h-2.8v-2l-0.7-0.5l-1.1-0.9l-0.5-0.4h-33.1l-0.4,0.2l-1.5,0.9l-0.9,0.5
		v2.1h-109.8c-8.8,0-17.1,3.4-23.4,9.7c-6.2,6.2-9.7,14.5-9.7,23.3v28.7h-1.3l-0.5,0.5l-0.9,0.9l-0.5,0.5v20.5l0.5,0.5l0.9,0.9
		l0.5,0.5h1.3v18.8h-1.3l-0.5,0.5l-0.9,0.9l-0.5,0.5v15.6l0.5,0.5l0.9,0.9l0.5,0.5h1.3v18.5h-1.3l-0.5,0.5l-0.9,0.9l-0.5,0.5v15.6
		l0.5,0.5l0.9,0.9l0.5,0.5h1.3V594c0,8.8,3.4,17.1,9.7,23.3c6.3,6.3,14.5,9.7,23.4,9.7H-8c8.8,0,17.1-3.4,23.4-9.7
		c6.3-6.2,9.7-14.5,9.7-23.3V204.6C25,195.8,21.6,187.5,15.3,181.3L15.3,181.3L15.3,181.3z M-47.3,170.5l1.5-0.9h32.1l1.1,0.8v1.1
		h-34.7L-47.3,170.5L-47.3,170.5L-47.3,170.5z M-180.6,182.9c5.8-5.8,13.5-9,21.8-9H-8c8.2,0,15.9,3.2,21.8,9c5.8,5.8,9,13.5,9,21.7
		v7.1h-2.3v-7.1c0-15.7-12.8-28.5-28.5-28.5h-150.8c-15.7,0-28.5,12.7-28.5,28.5v7.1h-2.3v-7.1
		C-189.6,196.4-186.4,188.7-180.6,182.9L-180.6,182.9z M22.7,215.2v368.6h-2.3V215.2L22.7,215.2L22.7,215.2L22.7,215.2z M18.2,204.6
		V594c0,14.4-11.8,26.2-26.2,26.2h-150.8c-14.5,0-26.2-11.8-26.2-26.2V204.6c0-14.4,11.8-26.2,26.2-26.2H-8
		C6.4,178.4,18.2,190.2,18.2,204.6L18.2,204.6z M-189.6,333.6V215.2h2.3v368.6h-2.3L-189.6,333.6L-189.6,333.6z M-192.4,255.9
		l-0.9-0.9V236l0.9-0.9h0.6v20.8L-192.4,255.9L-192.4,255.9L-192.4,255.9z M-192.4,294l-0.9-0.9v-14.2l0.9-0.9h0.6V294L-192.4,294
		L-192.4,294L-192.4,294z M-192.4,331.9l-0.9-0.9v-14.2l0.9-0.9h0.6v15.9L-192.4,331.9L-192.4,331.9L-192.4,331.9z M13.7,615.7
		c-5.8,5.8-13.5,9-21.8,9h-150.8c-8.2,0-15.9-3.2-21.8-9c-5.8-5.8-9-13.5-9-21.7v-6.8h2.3v6.8c0,15.7,12.8,28.5,28.5,28.5H-8
		c15.7,0,28.5-12.8,28.5-28.5v-6.8h2.3v6.8C22.7,602.2,19.5,609.9,13.7,615.7L13.7,615.7L13.7,615.7z"/>
	<path class="st0" d="M-99.7,216.3h31.3c2.4,0,4.3-1.9,4.3-4.3s-1.9-4.3-4.3-4.3h-31.3c-2.4,0-4.3,1.9-4.3,4.3
		S-102,216.3-99.7,216.3L-99.7,216.3L-99.7,216.3z M-99.7,210h31.3c1.1,0,2,0.9,2,2c0,1.1-0.9,2-2,2h-31.3c-1.1,0-2-0.9-2-2
		S-100.7,210-99.7,210L-99.7,210L-99.7,210L-99.7,210z M7.4,235.4h-182.2c-1.3,0-2.3,1-2.3,2.3V561c0,1.3,1,2.3,2.3,2.3H7.4
		c1.3,0,2.3-1,2.3-2.3V237.7C9.6,236.4,8.6,235.4,7.4,235.4L7.4,235.4z M7.4,561h-182.2V237.6H7.4L7.4,561L7.4,561z M-83.6,573.5
		c-10.6,0-19.2,8.6-19.2,19.2c0,10.6,8.6,19.2,19.2,19.2c10.6,0,19.2-8.6,19.2-19.2S-73,573.5-83.6,573.5L-83.6,573.5L-83.6,573.5z
		 M-83.6,609.6c-9.3,0-16.9-7.6-16.9-16.9s7.6-16.9,16.9-16.9s16.9,7.6,16.9,16.9C-66.6,602.1-74.2,609.7-83.6,609.6L-83.6,609.6
		L-83.6,609.6z M-83.7,199.7c2.7,0,4.8-2.2,4.8-4.8c0-2.7-2.2-4.8-4.8-4.8c-2.7,0-4.8,2.2-4.8,4.8S-86.4,199.7-83.7,199.7
		L-83.7,199.7L-83.7,199.7z M-83.7,191.7c1.7,0,3.1,1.4,3.1,3.1s-1.4,3.1-3.1,3.1c-1.7,0-3.1-1.4-3.1-3.1S-85.4,191.7-83.7,191.7z"
		/>
	<circle class="st0" cx="-83.7" cy="194.8" r="1.7"/>
	<path class="st1" d="M-174.8,237.7H7.4V561h-182.2V237.7z"/>
</g>
</svg>
