<?xml version="1.0" encoding="utf-8"?>
<!-- Generator: Adobe Illustrator 16.0.0, SVG Export Plug-In . SVG Version: 6.00 Build 0)  -->
<!DOCTYPE svg PUBLIC "-//W3C//DTD SVG 1.1//EN" "http://www.w3.org/Graphics/SVG/1.1/DTD/svg11.dtd">
<svg version="1.1" id="Layer_1" xmlns="http://www.w3.org/2000/svg" xmlns:xlink="http://www.w3.org/1999/xlink" x="0px" y="0px"
	 width="600px" height="848.236px" viewBox="0 0 600 848.236" enable-background="new 0 0 600 848.236" xml:space="preserve">
<g>
	<g>
		<path fill="#FFFFFF" d="M589.536,10.358C582.767,3.679,573.681,0,563.952,0H34.765c-9.187,0-17.883,3.688-24.488,10.384
			C3.649,17.102,0,25.989,0,35.408V812.83c0,19.523,17.117,35.406,38.157,35.406h523.734c10.178,0,19.685-3.662,26.767-10.311
			C595.973,831.06,600,821.578,600,811.227V35.408C600,25.912,596.284,17.016,589.536,10.358z M597.306,811.227
			c0,20.205-16.171,34.316-35.414,34.316H38.157c-19.563,0-35.464-14.646-35.464-32.713V35.408
			c0-18.067,14.646-32.714,32.072-32.714h529.187c18.708,0,33.354,14.646,33.354,32.714V811.227z"/>
		<path fill="#FFFFFF" d="M563.972,6.734H34.786c-7.37,0-14.364,2.977-19.694,8.379C9.716,20.563,6.755,27.77,6.755,35.408V812.83
			c0,15.81,14.096,28.673,31.423,28.673h523.735c8.459,0,16.328-3.014,22.158-8.486c5.943-5.579,9.216-13.318,9.216-21.79V35.408
			c0-7.681-3.005-14.874-8.459-20.256C579.327,9.724,571.92,6.734,563.972,6.734z M590.594,811.227
			c0,7.721-2.972,14.762-8.366,19.826c-5.328,5.002-12.543,7.756-20.314,7.756H38.178c-15.841,0-28.729-11.654-28.729-25.979V35.408
			c0-6.925,2.685-13.46,7.561-18.403c4.82-4.886,11.134-7.577,17.776-7.577h529.186c7.235,0,13.971,2.714,18.965,7.641
			c4.937,4.873,7.657,11.386,7.657,18.339V811.227z"/>
		<path fill="#FFFFFF" d="M558.741,75.774H41.569c-1.859,0-3.367,1.507-3.367,3.367v689.562c0,1.859,1.508,3.367,3.367,3.367
			h517.172c1.859,0,3.367-1.508,3.367-3.367V79.141C562.108,77.281,560.601,75.774,558.741,75.774z M558.741,768.703H41.569V79.141
			h517.172V768.703z"/>
		<path fill="#FFFFFF" d="M299.796,46.353c2.789,0,5.051-2.261,5.051-5.05c0-2.79-2.262-5.051-5.051-5.051
			c-2.789,0-5.05,2.261-5.05,5.051C294.746,44.092,297.007,46.353,299.796,46.353z M299.796,38.272c1.671,0,3.03,1.359,3.03,3.031
			c0,1.671-1.359,3.03-3.03,3.03s-3.03-1.359-3.03-3.03C296.766,39.631,298.125,38.272,299.796,38.272z"/>
		<ellipse fill="#FFFFFF" cx="285.318" cy="41.429" rx="2.706" ry="2.719"/>
		<path fill="#FFFFFF" d="M299.761,789.03c-11.157,0-20.202,9.044-20.202,20.201c0,0.162,0.008,0.322,0.012,0.484
			c0.258,10.934,9.195,19.718,20.19,19.718c11.157,0,20.203-9.045,20.203-20.202S310.918,789.03,299.761,789.03z M299.761,826.74
			c-4.603,0-8.948-1.772-12.238-4.991c-3.283-3.213-5.151-7.509-5.259-12.1l-0.005-0.184c-0.002-0.078-0.006-0.156-0.006-0.234
			c0-9.653,7.854-17.509,17.508-17.509c9.655,0,17.508,7.855,17.508,17.509C317.27,818.886,309.416,826.74,299.761,826.74z"/>
		<path fill="#FFFFFF" d="M303.651,801.339h-7.977c-1.888,0-3.418,1.531-3.418,3.418v7.978c0,1.889,1.53,3.419,3.418,3.419h7.977
			c1.889,0,3.42-1.53,3.42-3.419v-7.978C307.071,802.87,305.54,801.339,303.651,801.339z M304.377,812.734
			c0,0.4-0.325,0.727-0.726,0.727h-7.977c-0.4,0-0.725-0.326-0.725-0.727v-7.978c0-0.399,0.325-0.724,0.725-0.724h7.977
			c0.4,0,0.726,0.324,0.726,0.724V812.734z"/>
	</g>
	<rect x="41.569" y="79.141" opacity="0.1" fill="#FFFFFF" width="517.172" height="689.562"/>
</g>
</svg>
