<svg xmlns="http://www.w3.org/2000/svg" width="600" height="848.236" viewBox="0 0 600 848.236"><g fill="#FFF"><path d="M589.536 10.358C582.766 3.678 573.68 0 563.952 0H34.765c-9.187 0-17.883 3.688-24.488 10.384C3.65 17.102 0 25.99 0 35.408V812.83c0 19.523 17.117 35.406 38.157 35.406H561.89c10.18 0 19.686-3.662 26.768-10.31 7.315-6.866 11.342-16.348 11.342-26.7V35.41c0-9.496-3.716-18.392-10.464-25.05zm7.77 800.87c0 20.204-16.17 34.315-35.414 34.315H38.157c-19.563 0-35.464-14.646-35.464-32.713V35.408c0-18.067 14.646-32.714 32.072-32.714h529.187c18.708 0 33.354 14.646 33.354 32.714v775.82z"/><path d="M563.972 6.734H34.786c-7.37 0-14.364 2.977-19.694 8.38-5.376 5.45-8.337 12.656-8.337 20.294V812.83c0 15.81 14.096 28.673 31.423 28.673h523.735c8.46 0 16.328-3.014 22.158-8.486 5.947-5.58 9.22-13.318 9.22-21.79V35.407c0-7.68-3.005-14.873-8.46-20.255-5.5-5.428-12.907-8.418-20.855-8.418zm26.622 804.493c0 7.72-2.972 14.762-8.366 19.826-5.328 5.002-12.543 7.756-20.314 7.756H38.178c-15.84 0-28.73-11.658-28.73-25.98V35.405c0-6.925 2.686-13.46 7.562-18.403 4.82-4.886 11.134-7.577 17.776-7.577h529.186c7.235 0 13.97 2.714 18.965 7.64 4.937 4.874 7.657 11.387 7.657 18.34v775.82z"/><path d="M558.74 75.774H41.57c-1.86 0-3.368 1.507-3.368 3.367v689.566c0 1.86 1.508 3.367 3.367 3.367h517.17c1.86 0 3.365-1.507 3.365-3.366V79.14c0-1.86-1.507-3.366-3.367-3.366zm0 692.93H41.57V79.14h517.17v689.563zM299.796 46.354c2.79 0 5.05-2.26 5.05-5.05s-2.26-5.05-5.05-5.05-5.05 2.26-5.05 5.05 2.26 5.05 5.05 5.05zm0-8.08c1.67 0 3.03 1.357 3.03 3.03 0 1.67-1.36 3.03-3.03 3.03s-3.03-1.36-3.03-3.03c0-1.673 1.36-3.03 3.03-3.03z"/><ellipse cx="285.318" cy="41.429" rx="2.706" ry="2.719"/><path d="M299.76 789.03c-11.156 0-20.2 9.044-20.2 20.2 0 .163.007.323.01.485.26 10.934 9.196 19.718 20.19 19.718 11.158 0 20.204-9.045 20.204-20.202s-9.046-20.2-20.203-20.2zm0 37.71c-4.602 0-8.947-1.772-12.237-4.99-3.283-3.214-5.15-7.51-5.26-12.1l-.004-.185c-.006-.078-.01-.156-.01-.234 0-9.65 7.854-17.505 17.51-17.505 9.654 0 17.51 7.855 17.51 17.51 0 9.654-7.856 17.508-17.51 17.508z"/><path d="M303.65 801.34h-7.976c-1.888 0-3.418 1.53-3.418 3.417v7.978c0 1.89 1.53 3.42 3.418 3.42h7.977c1.89 0 3.42-1.53 3.42-3.42v-7.978c0-1.887-1.53-3.418-3.42-3.418zm.727 11.394c0 .4-.325.727-.726.727h-7.973c-.4 0-.725-.322-.725-.723v-7.978c0-.4.325-.725.725-.725h7.977c.4 0 .728.324.728.724v7.977z"/><path opacity=".1" d="M41.57 79.14h517.17v689.563H41.57z"/></g></svg>