<svg xmlns="http://www.w3.org/2000/svg" width="460" height="650.315" viewBox="70 98.96 460 650.315"><g fill="#FFF"><path d="M521.977 106.902c-5.19-5.122-12.155-7.94-19.613-7.94H96.654c-7.043 0-13.71 2.827-18.775 7.96-5.08 5.15-7.88 11.965-7.88 19.185V722.13c0 14.968 13.12 27.145 29.25 27.145h401.53c7.8 0 15.09-2.808 20.52-7.904 5.61-5.26 8.69-12.53 8.69-20.47V126.11c0-7.282-2.85-14.102-8.03-19.206v-.002zm5.958 614c0 15.49-12.396 26.31-27.15 26.31H99.253c-14.998 0-27.19-11.23-27.19-25.08V126.106c0-13.852 11.23-25.082 24.59-25.082h405.71c14.343 0 25.57 11.23 25.57 25.082V720.9h.002z"/><path d="M502.38 104.124H96.67c-5.65 0-11.013 2.282-15.1 6.425-4.122 4.17-6.39 9.7-6.39 15.55v596.03c0 12.12 10.806 21.98 24.09 21.98H500.8c6.486 0 12.518-2.31 16.987-6.51 4.56-4.28 7.07-10.21 7.07-16.71V126.1c0-5.89-2.305-11.402-6.486-15.53-4.21-4.16-9.89-6.453-15.99-6.453zM522.787 720.9c0 5.92-2.278 11.32-6.414 15.2-4.084 3.836-9.615 5.947-15.573 5.947H99.27c-12.144 0-22.026-8.938-22.026-19.918V126.1c0-5.31 2.06-10.32 5.797-14.11 3.7-3.745 8.54-5.81 13.63-5.81h405.71c5.55 0 10.71 2.083 14.54 5.86 3.79 3.736 5.87 8.73 5.87 14.06v594.8z"/><path d="M498.368 157.055H101.87c-1.426 0-2.582 1.155-2.582 2.58v528.668c0 1.427 1.156 2.58 2.58 2.58h396.5c1.425 0 2.578-1.153 2.578-2.58V159.636c0-1.426-1.155-2.58-2.58-2.58h.002zm0 531.245H101.87V159.635h396.498V688.3zM299.844 134.5c2.14 0 3.87-1.733 3.87-3.872s-1.73-3.872-3.87-3.872-3.872 1.733-3.872 3.872 1.733 3.87 3.872 3.87zm0-6.195c1.28 0 2.323 1.04 2.323 2.323 0 1.28-1.043 2.323-2.323 2.323s-2.323-1.04-2.323-2.32c0-1.28 1.05-2.32 2.33-2.32z"/><ellipse cx="288.744" cy="130.723" rx="2.074" ry="2.084"/><path d="M299.816 703.885c-8.553 0-15.486 6.933-15.486 15.487 0 .123.005.246.007.37.2 8.383 7.05 15.116 15.48 15.116 8.554 0 15.49-6.934 15.49-15.486 0-8.555-6.936-15.486-15.49-15.486zm0 28.91c-3.528 0-6.86-1.36-9.38-3.825-2.518-2.465-3.95-5.758-4.033-9.277l-.004-.14c-.01-.062-.01-.122-.01-.18 0-7.4 6.02-13.42 13.42-13.42s13.42 6.02 13.42 13.422c0 7.4-6.03 13.423-13.43 13.423v-.004z"/><path d="M302.8 713.32h-6.116c-1.448 0-2.62 1.175-2.62 2.62v6.117c0 1.448 1.172 2.622 2.62 2.622h6.115c1.45 0 2.62-1.18 2.62-2.63v-6.12c0-1.45-1.17-2.62-2.62-2.62zm.555 8.738c0 .306-.25.557-.557.557h-6.113c-.306 0-.555-.247-.555-.555v-6.116c0-.307.25-.556.555-.556h6.117c.306 0 .558.248.558.555v6.115h-.005z"/><path opacity=".1" d="M101.87 159.635h396.498V688.3H101.87V159.635z"/></g></svg>