<?xml version="1.0" encoding="utf-8"?>
<!-- Generator: Adobe Illustrator 19.1.1, SVG Export Plug-In . SVG Version: 6.00 Build 0)  -->
<svg version="1.1" id="Layer_1" xmlns="http://www.w3.org/2000/svg" xmlns:xlink="http://www.w3.org/1999/xlink" x="0px" y="0px"
	width="460" height="650.3"
	 viewBox="-75 71.7 460 650.3" style="enable-background:new -75 71.7 460 650.3;" xml:space="preserve">
<style type="text/css">
	.st0{fill:#FFFFFF;}
	.st1{opacity:0.1;fill:#FFFFFF;enable-background:new    ;}
</style>
<path class="st0" d="M377,79.6c-5.2-5.1-12.2-7.9-19.6-7.9H-48.3c-7,0-13.7,2.8-18.8,8c-5.1,5.2-7.9,12-7.9,19.2v596
	c0,15,13.1,27.1,29.3,27.1h401.5c7.8,0,15.1-2.8,20.5-7.9c5.6-5.3,8.7-12.5,8.7-20.5V98.8C385,91.6,382.1,84.7,377,79.6L377,79.6
	L377,79.6z M382.9,693.6c0,15.5-12.4,26.3-27.1,26.3H-45.7c-15,0-27.2-11.2-27.2-25.1v-596c0-13.9,11.2-25.1,24.6-25.1h405.7
	c14.3,0,25.6,11.2,25.6,25.1L382.9,693.6L382.9,693.6L382.9,693.6z"/>
<path class="st0" d="M357.4,76.8H-48.3c-5.7,0-11,2.3-15.1,6.4c-4.1,4.2-6.4,9.7-6.4,15.6v596c0,12.1,10.8,22,24.1,22h401.5
	c6.5,0,12.5-2.3,17-6.5c4.6-4.3,7.1-10.2,7.1-16.7V98.8c0-5.9-2.3-11.4-6.5-15.5C369.2,79.1,363.5,76.8,357.4,76.8L357.4,76.8z
	 M377.8,693.6c0,5.9-2.3,11.3-6.4,15.2c-4.1,3.8-9.6,5.9-15.6,5.9H-45.7c-12.1,0-22-8.9-22-19.9v-596c0-5.3,2.1-10.3,5.8-14.1
	c3.7-3.7,8.5-5.8,13.6-5.8h405.7c5.5,0,10.7,2.1,14.5,5.9c3.8,3.7,5.9,8.7,5.9,14.1L377.8,693.6L377.8,693.6z"/>
<path class="st0" d="M353.4,129.8H-43.1c-1.4,0-2.6,1.2-2.6,2.6V661c0,1.4,1.2,2.6,2.6,2.6h396.5c1.4,0,2.6-1.2,2.6-2.6V132.4
	C355.9,130.9,354.8,129.8,353.4,129.8L353.4,129.8L353.4,129.8z M353.4,661H-43.1V132.4h396.5L353.4,661L353.4,661z M154.8,107.2
	c2.1,0,3.9-1.7,3.9-3.9s-1.7-3.9-3.9-3.9s-3.9,1.7-3.9,3.9S152.7,107.2,154.8,107.2L154.8,107.2z M154.8,101c1.3,0,2.3,1,2.3,2.3
	c0,1.3-1,2.3-2.3,2.3s-2.3-1-2.3-2.3C152.5,102.1,153.6,101,154.8,101L154.8,101z"/>
<ellipse class="st0" cx="143.7" cy="103.4" rx="2.1" ry="2.1"/>
<path class="st0" d="M154.8,676.6c-8.6,0-15.5,6.9-15.5,15.5c0,0.1,0,0.2,0,0.4c0.2,8.4,7,15.1,15.5,15.1c8.6,0,15.5-6.9,15.5-15.5
	C170.3,683.5,163.4,676.6,154.8,676.6L154.8,676.6z M154.8,705.5c-3.5,0-6.9-1.4-9.4-3.8c-2.5-2.5-4-5.8-4-9.3l0-0.1
	c0-0.1,0-0.1,0-0.2c0-7.4,6-13.4,13.4-13.4s13.4,6,13.4,13.4C168.2,699.5,162.2,705.5,154.8,705.5L154.8,705.5L154.8,705.5z"/>
<path class="st0" d="M157.8,686h-6.1c-1.4,0-2.6,1.2-2.6,2.6v6.1c0,1.4,1.2,2.6,2.6,2.6h6.1c1.5,0,2.6-1.2,2.6-2.6v-6.1
	C160.4,687.2,159.2,686,157.8,686L157.8,686z M158.4,694.8c0,0.3-0.3,0.6-0.6,0.6h-6.1c-0.3,0-0.6-0.2-0.6-0.6v-6.1
	c0-0.3,0.3-0.6,0.6-0.6h6.1c0.3,0,0.6,0.2,0.6,0.6L158.4,694.8L158.4,694.8L158.4,694.8z"/>
<path class="st1" d="M-43.1,132.4h396.5V661H-43.1V132.4z"/>
</svg>
