<svg xmlns="http://www.w3.org/2000/svg" width="466.315" height="268.001" viewBox="0 0 466.315 268.001"><path fill="#293034" d="M422.824 258.845c.414-1.38.638-2.84.638-4.353V15.13c0-8.355-6.773-15.13-15.13-15.13H57.982c-8.354 0-15.13 6.774-15.13 15.13v239.362c0 1.514.227 2.974.64 4.353h379.333z"/><path fill="#E6E7E8" d="M56.01 15.67h354.463v219.92H56.01z"/><path fill="#58595B" d="M408.333 0H276.698l120.806 256.346h25.84c.076-.608.118-1.226.118-1.854V15.13c0-8.356-6.774-15.13-15.13-15.13z"/><path fill="#F1F2F2" d="M387.184 235.59h23.29V15.67H283.54"/><path fill="#D1D3D4" d="M2.763 262.313C5.688 265.67 12.088 268 19.518 268h427.28c7.43 0 13.83-2.33 16.755-5.687H2.763z"/><path fill="#F1F2F2" d="M0 253.848h466.315v9.006H0z"/><path fill="#D1D3D4" d="M200.14 253.848c.807 2.89 3.29 4.997 6.23 4.997h52.826c2.94 0 5.423-2.106 6.23-4.997H200.14z"/></svg>