<?xml version="1.0" encoding="utf-8"?>
<!-- Generator: Adobe Illustrator 16.0.0, SVG Export Plug-In . SVG Version: 6.00 Build 0)  -->
<!DOCTYPE svg PUBLIC "-//W3C//DTD SVG 1.1//EN" "http://www.w3.org/Graphics/SVG/1.1/DTD/svg11.dtd">
<svg version="1.1" id="Layer_1" xmlns="http://www.w3.org/2000/svg" xmlns:xlink="http://www.w3.org/1999/xlink" x="0px" y="0px"
	 width="209.625px" height="276.528px" viewBox="0 0 209.625 276.528" enable-background="new 0 0 209.625 276.528"
	 xml:space="preserve">
<g>
	<path fill="#293034" d="M209.625,266.528c0,5.522-4.477,10-10,10H10c-5.523,0-10-4.478-10-10V10C0,4.477,4.477,0,10,0h189.625
		c5.523,0,10,4.477,10,10V266.528z"/>
	<path fill="#58595B" d="M203.572,275.716c3.56-1.531,6.053-5.067,6.053-9.188V10c0-5.523-4.477-10-10-10H73.639L203.572,275.716z"
		/>
	<rect x="23.711" y="27.24" fill="#E6E7E8" width="162.203" height="224.111"/>
	<polygon fill="#F1F2F2" points="185.914,239.512 185.914,27.24 85.876,27.24 	"/>
	<ellipse fill="#BCBEC0" cx="104.813" cy="264.399" rx="7.019" ry="6.731"/>
	<ellipse fill="#293034" cx="104.813" cy="264.599" rx="7.019" ry="6.731"/>
	<path fill="#E6E7E8" d="M106.444,262.037h-3.264c-0.535,0-0.97,0.429-0.97,0.957v3.085c0,0.529,0.435,0.957,0.97,0.957h3.264
		c0.536,0,0.97-0.428,0.97-0.957v-3.085C107.414,262.466,106.98,262.037,106.444,262.037z M106.979,265.821
		c0,0.44-0.362,0.797-0.809,0.797h-2.717c-0.446,0-0.809-0.356-0.809-0.797v-2.569c0-0.44,0.362-0.797,0.809-0.797h2.717
		c0.446,0,0.809,0.356,0.809,0.797V265.821z"/>
</g>
</svg>
